<svg xmlns="http://www.w3.org/2000/svg" viewBox="0 0 27.18 14.11"><defs><style>.cls-1{fill:#74e4bc;}</style></defs><title>Asset 20</title><g id="Layer_2" data-name="Layer 2"><g id="Layer_1-2" data-name="Layer 1"><path class="cls-1" d="M25.94,0H1.24A1.25,1.25,0,0,0,0,1.24V12.87a1.24,1.24,0,0,0,1.24,1.24h24.7a1.24,1.24,0,0,0,1.24-1.24V1.24A1.25,1.25,0,0,0,25.94,0ZM4,9.59v.59a.29.29,0,0,1-.28.29H3.16a.28.28,0,0,1-.27-.29V9.59a1.91,1.91,0,0,1-1.06-.41.31.31,0,0,1,0-.44l.4-.41a.26.26,0,0,1,.34,0A.77.77,0,0,0,3,8.44h.95A.45.45,0,0,0,4.34,8,.47.47,0,0,0,4,7.5L2.52,7A1.63,1.63,0,0,1,1.45,5.44,1.57,1.57,0,0,1,2.89,3.8V3.22a.28.28,0,0,1,.27-.29H3.7A.28.28,0,0,1,4,3.22v.59A1.84,1.84,0,0,1,5,4.22a.31.31,0,0,1,0,.44l-.4.41a.26.26,0,0,1-.34,0A.78.78,0,0,0,3.88,5H2.93a.44.44,0,0,0-.4.48.48.48,0,0,0,.3.46l1.52.49A1.63,1.63,0,0,1,5.42,8,1.57,1.57,0,0,1,4,9.59ZM12.1,9a.28.28,0,0,1-.27.29H8A.28.28,0,0,1,7.77,9V8.44A.28.28,0,0,1,8,8.15h3.79a.28.28,0,0,1,.27.29Zm5.41,0a.28.28,0,0,1-.27.29H14.53A.29.29,0,0,1,14.26,9V8.44a.29.29,0,0,1,.27-.29h2.71a.28.28,0,0,1,.27.29Zm0-3.48a.28.28,0,0,1-.27.29H8a.28.28,0,0,1-.27-.29V5A.28.28,0,0,1,8,4.67h9.2a.28.28,0,0,1,.27.29Z"/></g></g></svg>