<svg xmlns="http://www.w3.org/2000/svg" viewBox="0 0 25 16.76"><defs><style>.cls-1{fill:#74e4bc;}</style></defs><title>Asset 24</title><g id="Layer_2" data-name="Layer 2"><g id="Layer_1-2" data-name="Layer 1"><path class="cls-1" d="M0,14.68a2.08,2.08,0,0,0,2.08,2.08H22.92A2.08,2.08,0,0,0,25,14.68V7H0Zm8.33-2.95a.52.52,0,0,1,.52-.52h5.91a.52.52,0,0,1,.52.52v1.73a.52.52,0,0,1-.52.52H8.85a.52.52,0,0,1-.52-.52Zm-5.55,0a.52.52,0,0,1,.52-.52H6.42a.52.52,0,0,1,.52.52v1.73a.52.52,0,0,1-.52.52H3.3a.52.52,0,0,1-.52-.52ZM25,2.08V4.17H0V2.08A2.08,2.08,0,0,1,2.08,0H22.92A2.08,2.08,0,0,1,25,2.08Z"/></g></g></svg>