<svg id="Layer_1" data-name="Layer 1" xmlns="http://www.w3.org/2000/svg" viewBox="0 0 51.95 53.34"><defs><style>.cls-1{fill:#bde5e2;}.cls-2{fill:#ffd7d7;}.cls-3{fill:#fff;}.cls-4{fill:#d2dbb4;}</style></defs><title>navbar</title><path class="cls-1" d="M45.38,29v0H32.84a1.67,1.67,0,0,1-1.67-1.67V22.86h4a1,1,0,0,0,.76-1.7L26.73,11a1,1,0,0,0-1.51,0L16,21.16a1,1,0,0,0,.75,1.7h4v4.52a1.67,1.67,0,0,1-1.67,1.67H8.66a8.79,8.79,0,1,1,.41-17.58l.43,0A11.73,11.73,0,0,1,31.47,6a8.8,8.8,0,0,1,13.78,7.32,9.71,9.71,0,0,1-.1,1.21A7.26,7.26,0,0,1,45.38,29Z"/><path class="cls-2" d="M48.31,44.06l-2-7.82L27.06,41.12l.24,1,.19.75.07.27.36,1.38.59,2.34L29.05,49a6.2,6.2,0,0,0,.3.89,4.11,4.11,0,0,0,.21.42,4.36,4.36,0,0,0,.35.59,5.83,5.83,0,0,0,6.21,2.31l8-2A5.81,5.81,0,0,0,48.31,44.06Zm-6.21.07-2.45,2.39-2.46,2.4a.61.61,0,0,1-1-.29l-.85-3.32L34.49,42a.6.6,0,0,1,.75-.73l3.31.93,3.3.93A.6.6,0,0,1,42.1,44.13ZM29,35a5.83,5.83,0,0,0-2.12,5l6.44-1.63Zm10.24-3.16-3.08.78L41,36.46l5-1.27A5.84,5.84,0,0,0,39.21,31.86ZM34.79,33l-3.57.91a5.57,5.57,0,0,0-1.29.5l4.69,3.69,5-1.28Z"/><path class="cls-3" d="M18.81,37.43,8.47,34.74,6.18,43.56l5.4-4.29a.78.78,0,0,1,1.25.34l2.75,7,2.83-1.93a.77.77,0,0,1,1.13.25l1.58,2.81.21-.83,2.15-8.26ZM21,41.5a2.24,2.24,0,0,1-.14.36,1.38,1.38,0,0,1-.22.35,1,1,0,0,1-.22.24l0,0a1.73,1.73,0,0,1-.48.28,1.44,1.44,0,0,1-.85.06A1.7,1.7,0,0,1,18,40.72a1.48,1.48,0,0,1,.13-.35,1.41,1.41,0,0,1,.23-.35l.08-.1.08-.1a1.39,1.39,0,0,1,.19-.15,1.54,1.54,0,0,1,.39-.23,1.56,1.56,0,0,1,.86,0A1.68,1.68,0,0,1,21,41.5Z"/><path class="cls-4" d="M23.8,37.39,18.45,36,8.81,33.49a1.22,1.22,0,0,0-1.42,1L4.06,47.26a1.21,1.21,0,0,0,.76,1.53l15,3.9a1.19,1.19,0,0,0,1.41-.95l.88-3.42,2.46-9.4A1.21,1.21,0,0,0,23.8,37.39ZM21.33,46.9l-.21.83-1.58-2.81a.77.77,0,0,0-1.13-.25L15.58,46.6l-2.75-7a.78.78,0,0,0-1.25-.34l-5.4,4.29,2.29-8.82,10.34,2.69,4.67,1.21Z"/><path class="cls-4" d="M21,41.5a2.24,2.24,0,0,1-.14.36,1.38,1.38,0,0,1-.22.35,1,1,0,0,1-.22.24l0,0a1.73,1.73,0,0,1-.48.28,1.44,1.44,0,0,1-.85.06A1.7,1.7,0,0,1,18,40.72a1.48,1.48,0,0,1,.13-.35,1.41,1.41,0,0,1,.23-.35l.08-.1.08-.1a1.39,1.39,0,0,1,.19-.15,1.54,1.54,0,0,1,.39-.23,1.56,1.56,0,0,1,.86,0A1.68,1.68,0,0,1,21,41.5Z"/></svg>