<svg id="Layer_1" data-name="Layer 1" xmlns="http://www.w3.org/2000/svg" viewBox="0 0 51.95 52.5"><defs><style>.cls-1{fill:#bde5e2;}.cls-2{fill:#fff;}.cls-3{fill:#d2dbb4;}</style></defs><title>navbar</title><path class="cls-1" d="M45.38,29v0H32.84a1.67,1.67,0,0,1-1.67-1.67V22.86h4a1,1,0,0,0,.76-1.7L26.73,11a1,1,0,0,0-1.51,0L16,21.16a1,1,0,0,0,.75,1.7h4v4.52a1.67,1.67,0,0,1-1.67,1.67H8.66a8.79,8.79,0,1,1,.41-17.58l.43,0A11.73,11.73,0,0,1,31.47,6a8.8,8.8,0,0,1,13.78,7.32,9.71,9.71,0,0,1-.1,1.21A7.26,7.26,0,0,1,45.38,29Z"/><path class="cls-2" d="M30.66,37.21,20.32,34.52,18,43.34l5.4-4.29a.78.78,0,0,1,1.25.34l2.75,7,2.82-1.92a.77.77,0,0,1,1.14.25L33,47.51l.21-.83,2.15-8.26Zm2.18,4.06a2,2,0,0,1-.14.37,1.18,1.18,0,0,1-.23.35.93.93,0,0,1-.21.24l0,0a1.73,1.73,0,0,1-.48.28,1.44,1.44,0,0,1-.85.06,1.69,1.69,0,0,1-1.06-2.11,1.33,1.33,0,0,1,.13-.35,1.74,1.74,0,0,1,.22-.35l.09-.1.08-.1a1,1,0,0,1,.19-.15,1.54,1.54,0,0,1,.39-.23,1.47,1.47,0,0,1,.86,0A1.68,1.68,0,0,1,32.84,41.27Z"/><path class="cls-3" d="M35.65,37.17,30.3,35.78l-9.64-2.52a1.23,1.23,0,0,0-1.42,1L15.91,47a1.22,1.22,0,0,0,.76,1.54l15,3.9a1.19,1.19,0,0,0,1.41-.95L34,48.1l2.46-9.4A1.22,1.22,0,0,0,35.65,37.17Zm-2.47,9.51-.21.83L31.39,44.7a.77.77,0,0,0-1.14-.25l-2.82,1.92-2.75-7a.78.78,0,0,0-1.25-.34L18,43.34l2.29-8.82,10.34,2.69,4.67,1.21Z"/><path class="cls-3" d="M32.84,41.27a2,2,0,0,1-.14.37,1.18,1.18,0,0,1-.23.35.93.93,0,0,1-.21.24l0,0a1.73,1.73,0,0,1-.48.28,1.44,1.44,0,0,1-.85.06,1.69,1.69,0,0,1-1.06-2.11,1.33,1.33,0,0,1,.13-.35,1.74,1.74,0,0,1,.22-.35l.09-.1.08-.1a1,1,0,0,1,.19-.15,1.54,1.54,0,0,1,.39-.23,1.47,1.47,0,0,1,.86,0A1.68,1.68,0,0,1,32.84,41.27Z"/></svg>