<svg xmlns="http://www.w3.org/2000/svg" viewBox="0 0 19.15 21.86"><defs><style>.cls-1{fill:none;stroke:#231f20;stroke-miterlimit:10;stroke-width:1.5px;}.cls-2{fill:#231f20;}</style></defs><title>Bell</title><g id="Layer_2" data-name="Layer 2"><g id="Layer_1-2" data-name="Layer 1"><path class="cls-1" d="M18.26,14.42l-2.19-1.84A6.56,6.56,0,0,1,14,9.4l-.59-2a6,6,0,0,0-6-4.06L7,1.91A1.76,1.76,0,0,0,4.76.83,1.77,1.77,0,0,0,3.46,3l.43,1.43A5.94,5.94,0,0,0,1.06,11l.59,2a6.68,6.68,0,0,1,0,3.81L.77,19.57a.37.37,0,0,0,.11.4.46.46,0,0,0,.44.09l16.74-4.92a.47.47,0,0,0,.32-.32A.4.4,0,0,0,18.26,14.42Z"/><path class="cls-2" d="M10,18.8a.26.26,0,0,1,.34.28A3,3,0,0,1,5,20.67a.27.27,0,0,1,.13-.42Z"/></g></g></svg>