<svg xmlns="http://www.w3.org/2000/svg" viewBox="0 0 136 136"><defs><style>.cls-1{fill:#e0e0e0;}.cls-2{fill:#f26161;}.cls-3{opacity:0.16;}.cls-10,.cls-12,.cls-26,.cls-3{isolation:isolate;}.cls-4{fill:#000064;}.cls-5{fill:#fff;}.cls-6{fill:#2e4369;}.cls-7{fill:#4c5e7d;}.cls-8{fill:#fff4e8;}.cls-9{fill:#f26950;}.cls-10{opacity:0.18;}.cls-11{fill:#101129;}.cls-12{opacity:0.25;}.cls-13{fill:#2f446a;}.cls-14{fill:#f9cb9a;}.cls-15{fill:#70bf44;}.cls-16{fill:#e2a875;}.cls-17{fill:#964f48;}.cls-18{fill:#f6b36d;}.cls-19{fill:#fad8b6;}.cls-20{fill:#536897;}.cls-21{fill:#7b8baf;}.cls-22{fill:#78d1f4;}.cls-23{fill:#778399;}.cls-24{fill:#fbd94e;}.cls-25{fill:#575f76;}.cls-26{opacity:0.2;}.cls-27{fill:#c3d6e0;}</style></defs><title>cookknow app design</title><g id="text"><path class="cls-1" d="M46,27.62a54,54,0,0,0,29.09-2.11c24.6-8.75,44.83,2.58,49.92,9.72,5.9,8.28,6.88,19.18,4.14,29.15s-8.88,19.06-16.25,27c-5.76,6.18-12.49,11.86-20.55,15.08-7.87,3.15-16.5,3.78-24.93,4.2-10.84.55-21.87.83-32.2-1.71-8.42-2.07-17.07-7.18-17.8-15.24-.63-6.87,4.77-13.63,4-20.49C20.35,63.59,8.28,58.83,4.29,50.05c-4.65-10.25,1.26-21.54,9.33-24C22,23.56,35.39,25.39,46,27.62Z"/><rect class="cls-2" x="28.46" y="9.06" width="78.02" height="78.02" rx="13"/><g class="cls-3"><path class="cls-4" d="M93.48,81.88h-52a13,13,0,0,1-13-13v5.21a13,13,0,0,0,13,13h52a13,13,0,0,0,13-13V68.87A13,13,0,0,1,93.48,81.88Z"/></g><path class="cls-5" d="M57.07,35.07v26l26-13Z"/><g class="cls-3"><path class="cls-4" d="M83.08,48.07l-26-13V39L79.18,50Z"/></g><path class="cls-6" d="M93.48,88.38h-52a14.32,14.32,0,0,1-14.31-14.3v-52A14.32,14.32,0,0,1,41.47,7.76h52a14.32,14.32,0,0,1,14.3,14.3v52A14.32,14.32,0,0,1,93.48,88.38Zm-52-78a11.72,11.72,0,0,0-11.71,11.7v52a11.72,11.72,0,0,0,11.71,11.7h52a11.72,11.72,0,0,0,11.7-11.7v-52a11.72,11.72,0,0,0-11.7-11.7Z"/><path class="cls-6" d="M57.07,62.37a1.25,1.25,0,0,1-.68-.19,1.3,1.3,0,0,1-.62-1.11v-26a1.3,1.3,0,0,1,1.88-1.17l26,13a1.29,1.29,0,0,1,0,2.32l-26,13A1.29,1.29,0,0,1,57.07,62.37Zm1.3-25.2V59l21.8-10.9Z"/><path class="cls-7" d="M36.84,15.84c-3,.85-5.78.33-6.21-1.17l.7,2.45c1.55.09,2.7.64,3,1.56l.85,3a9.84,9.84,0,0,0,3.24-.39c3-.86,5.09-2.77,4.66-4.26l-1.55-5.43C41.92,13.08,39.83,15,36.84,15.84Z"/><ellipse class="cls-8" cx="22.98" cy="14.33" rx="5.65" ry="2.82" transform="matrix(0.96, -0.27, 0.27, 0.96, -3.05, 6.85)"/><ellipse class="cls-9" cx="22.98" cy="14.32" rx="1.21" ry="0.4" transform="translate(-3.05 6.85) rotate(-15.91)"/><ellipse class="cls-8" cx="28.86" cy="20.23" rx="5.65" ry="2.82" transform="translate(-4.44 8.69) rotate(-15.91)"/><path class="cls-7" d="M28.09,17.52a10.43,10.43,0,0,1,1.57-.33l-1.25-4.4c.42,1.5-1.66,3.41-4.66,4.27s-5.78.33-6.2-1.17l1.54,5.43c.36,1.23,2.29,1.8,4.64,1.49l-.28-1a0,0,0,0,0,0,0v0C23,20.28,25.09,18.37,28.09,17.52Z"/><ellipse class="cls-9" cx="28.86" cy="20.22" rx="1.21" ry="0.4" transform="translate(-4.44 8.68) rotate(-15.91)"/><path class="cls-7" d="M29.63,23c-3,.85-5.77.33-6.2-1.17L25,27.21c.43,1.5,3.2,2,6.2,1.17s5.09-2.77,4.66-4.27l-1.55-5.43C34.72,20.19,32.63,22.09,29.63,23Z"/><g class="cls-10"><path class="cls-11" d="M25.53,23.24a2.48,2.48,0,0,1-2.1-1.46L25,27.21c.23.81,1.15,1.33,2.42,1.51a1.68,1.68,0,0,1-.54-.79Z"/></g><ellipse class="cls-8" cx="36.06" cy="13.12" rx="5.65" ry="2.82" transform="translate(-2.22 10.39) rotate(-15.91)"/><ellipse class="cls-9" cx="36.06" cy="13.11" rx="1.21" ry="0.4" transform="translate(-2.21 10.39) rotate(-15.91)"/><g class="cls-12"><path class="cls-5" d="M31.17,22.39l1.54,5.43a7.49,7.49,0,0,0,2.46-1.7l-1.55-5.43A7.44,7.44,0,0,1,31.17,22.39Z"/></g><g class="cls-10"><path class="cls-11" d="M19.64,17.35a2.46,2.46,0,0,1-2.09-1.46l1.54,5.43c.24.81,1.16,1.33,2.43,1.51A1.65,1.65,0,0,1,21,22Z"/></g><g class="cls-12"><path class="cls-5" d="M28.48,17.42l-.75-2.62a7.34,7.34,0,0,1-2.45,1.7l.56,1.94a10.53,10.53,0,0,1,2.25-.92Zm9.89-2.14,1.55,5.43A7.4,7.4,0,0,0,42.37,19l-1.55-5.43A7.3,7.3,0,0,1,38.37,15.28Z"/></g><g class="cls-10"><path class="cls-11" d="M32.73,16.13a2.48,2.48,0,0,1-2.1-1.46l.7,2.45a5.22,5.22,0,0,1,1.79.39Z"/></g><path class="cls-13" d="M23.86,17.44c-3.26.93-6.21.29-6.7-1.45s1.67-3.83,4.93-4.76,6.21-.29,6.7,1.45S27.12,16.51,23.86,17.44ZM22.31,12c-3,.86-4.7,2.64-4.38,3.76s2.69,1.75,5.71.89S28.34,14,28,12.9,25.33,11.15,22.31,12Z"/><path class="cls-13" d="M23.19,15.1c-.75.21-1.61.24-1.77-.33s.58-1,1.33-1.22,1.61-.24,1.77.33S23.94,14.89,23.19,15.1Zm.66-.86Zm-.88.09h0Z"/><path class="cls-13" d="M23.82,23.2h-.06c-2.62.34-4.65-.37-5.06-1.79L17.16,16a.4.4,0,0,1,.27-.49.4.4,0,0,1,.5.27l1.55,5.43c.28,1,2,1.49,4.18,1.21a.4.4,0,0,1,.45.35A.4.4,0,0,1,23.82,23.2Zm5.94-5.65a.4.4,0,0,1-.5-.27L28,12.9a.41.41,0,0,1,.27-.5.4.4,0,0,1,.5.28L30,17.06A.39.39,0,0,1,29.76,17.55Z"/><path class="cls-13" d="M29.73,23.34c-3.26.93-6.2.29-6.7-1.45S24.7,18.06,28,17.13s6.2-.29,6.7,1.45S33,22.41,29.73,23.34Zm-1.54-5.43c-3,.86-4.7,2.64-4.38,3.76s2.69,1.75,5.7.89,4.7-2.64,4.38-3.76S31.2,17.05,28.19,17.91Z"/><path class="cls-13" d="M29.07,21c-.75.21-1.61.24-1.77-.33s.58-1,1.33-1.22,1.61-.24,1.77.33S29.82,20.79,29.07,21Zm.65-.86h0Zm-.87.08Z"/><path class="cls-13" d="M31.28,28.77c-3.26.93-6.2.29-6.7-1.45L23,21.89a.42.42,0,0,1,.28-.5.41.41,0,0,1,.5.28l1.55,5.43c.32,1.12,2.69,1.75,5.7.89s4.7-2.64,4.38-3.76L33.89,18.8a.41.41,0,1,1,.78-.22L36.22,24C36.71,25.75,34.54,27.84,31.28,28.77Z"/><path class="cls-13" d="M36.94,16.23c-3.27.93-6.21.29-6.71-1.44S31.91,11,35.17,10s6.2-.29,6.7,1.45S40.2,15.3,36.94,16.23ZM35.39,10.8c-3,.86-4.7,2.64-4.38,3.76s2.69,1.75,5.71.89,4.69-2.64,4.37-3.76S38.4,9.94,35.39,10.8Z"/><path class="cls-13" d="M36.27,13.89c-.75.21-1.61.24-1.77-.33s.58-1,1.33-1.22,1.61-.24,1.77.33S37,13.68,36.27,13.89Zm.65-.86h0Zm-.87.08Z"/><path class="cls-13" d="M38.39,21.69a10.38,10.38,0,0,1-3.28.38.4.4,0,0,1,0-.8,9.63,9.63,0,0,0,3.11-.39c3-.86,4.7-2.64,4.38-3.76l-1.55-5.43a.41.41,0,0,1,.28-.5.4.4,0,0,1,.5.28l1.55,5.43C43.92,18.66,41.7,20.75,38.39,21.69Zm-7-4.2a.39.39,0,0,1-.49-.28l-.7-2.42a.41.41,0,0,1,.28-.5.4.4,0,0,1,.5.27L31.7,17A.4.4,0,0,1,31.42,17.49Z"/><path class="cls-14" d="M77.42,70.31c-1-1.83-3-3.21-6.33-2S67,72.45,66.53,76a14.54,14.54,0,0,1-1,4.31,3,3,0,0,1-1.19,1.38l14.83-6.45A27.61,27.61,0,0,0,77.42,70.31Z"/><path class="cls-15" d="M71.09,68.3a6.44,6.44,0,0,1,2.75-.43,1.3,1.3,0,0,0-2.08-1.32,2.7,2.7,0,0,1-2.39.1,1.81,1.81,0,0,0-2.44,1.46c-.06,1.29.12,1.62-.61,2.2s-2.11.4-1.56,1.87-.06,1.77-.71,2.11a1.61,1.61,0,0,0-.7,2c.4.73,1.35,1.13.77,2s-.65,1.69,1.4,2a15,15,0,0,0,1-4.34C67,72.45,67.78,69.52,71.09,68.3Z"/><path class="cls-16" d="M64.12,78.29c.58-.85-.34-1.28-.77-2a1.37,1.37,0,0,1,.7-2c1-.55,1.2-.89.71-2.11s1-1.47,1.56-1.87.55-.94.61-2.2a1.54,1.54,0,0,1,1-1.37,2.61,2.61,0,0,0-2.23.55,13.17,13.17,0,0,0-4.9,10.39c0,2.36.31,4.28,2.45,4.28a2.44,2.44,0,0,0,2.26-1.65C63.47,80,63.81,78.75,64.12,78.29Z"/><g class="cls-10"><path class="cls-11" d="M67.94,66.71h-.37a1.76,1.76,0,0,0-1.34,1.62c-.07,1.31.12,1.74-.52,2.29a2.4,2.4,0,0,0,.61-.28c.73-.58.55-.94.61-2.2a1.56,1.56,0,0,1,1-1.37Zm-4.07,6.05a1.81,1.81,0,0,1,0,1.62l.18-.09a1.45,1.45,0,0,0,.71-2.11A1,1,0,0,1,64.94,71C64.24,71.26,63.41,71.57,63.87,72.76Zm-1.56,4.56c.46.76,1.47,1.22.83,2.17-.34.49-.68,1.74,1.25,2.11a2.38,2.38,0,0,0,.49-.4,3.61,3.61,0,0,0,.64-1l-.3-.06c-1.72-.37-1.41-1.5-1.1-1.93s-.34-1.28-.77-2a1.3,1.3,0,0,1-.06-1.38l-.21.12A1.56,1.56,0,0,0,62.31,77.32Z"/></g><path class="cls-13" d="M63.26,82.24c-2.44,0-2.75-2.45-2.75-4.59a13.42,13.42,0,0,1,5-10.63A2.92,2.92,0,0,1,68,66.41a.31.31,0,0,1,.24.36.32.32,0,0,1-.37.24,2.3,2.3,0,0,0-2,.48,12.82,12.82,0,0,0-4.78,10.16c0,2.83.62,4,2.14,4a1.72,1.72,0,0,0,.6-.1h0l.28-.12c1-.58,1.69-2.3,2.08-5.48S67.33,69.32,71,68c4.21-1.51,6.09,1,6.71,2.16a27,27,0,0,1,1.76,5,.3.3,0,0,1-.17.36L64.44,82A2.37,2.37,0,0,1,63.26,82.24ZM73.43,68.15a6.75,6.75,0,0,0-2.24.43c-3,1.08-3.89,3.64-4.36,7.43a12.88,12.88,0,0,1-1.26,4.78L78.8,75a26.55,26.55,0,0,0-1.65-4.57A4.11,4.11,0,0,0,73.43,68.15Z"/><path class="cls-13" d="M65.52,80.59h0a2.09,2.09,0,0,1-1.79-1,1.56,1.56,0,0,1,.17-1.46c.15-.21-.27-.87-.55-1.3l-.22-.35a1.67,1.67,0,0,1-.23-1.3,2,2,0,0,1,1-1.18c.88-.48,1-.64.56-1.73s.57-1.69,1.19-2a2.79,2.79,0,0,0,.47-.25c.39-.3.43-.71.49-2a1.84,1.84,0,0,1,.79-1.43,2.47,2.47,0,0,1,2-.32l0,0a2.42,2.42,0,0,0,2.09-.07,1.71,1.71,0,0,1,2,0,1.48,1.48,0,0,1,.56,1.64.3.3,0,0,1-.38.21.32.32,0,0,1-.21-.38.85.85,0,0,0-.33-1,1.1,1.1,0,0,0-1.28,0,3,3,0,0,1-2.66.12,1.86,1.86,0,0,0-1.51.24,1.22,1.22,0,0,0-.53,1c-.06,1.29-.09,1.94-.73,2.43a2.85,2.85,0,0,1-.58.31c-.78.36-1.11.59-.88,1.2.56,1.43.28,1.88-.84,2.49a1.4,1.4,0,0,0-.75.8,1.1,1.1,0,0,0,.16.82l.22.34c.44.7.91,1.42.54,2a1,1,0,0,0-.12.86c.15.34.61.56,1.31.66a.3.3,0,0,1,.27.34A.32.32,0,0,1,65.52,80.59Z"/><rect class="cls-17" x="89.02" y="12.48" width="4.6" height="22.99" rx="1.92" transform="translate(24.19 90.36) rotate(-59.4)"/><g class="cls-10"><path class="cls-11" d="M99.3,30,82.81,20.28a1.91,1.91,0,0,1-.67-2.62l.39-.66a2,2,0,0,0-.91.79l-.39.66a1.92,1.92,0,0,0,.67,2.63l16.49,9.75a1.91,1.91,0,0,0,2.62-.67A1.91,1.91,0,0,1,99.3,30Z"/></g><path class="cls-18" d="M98.72,31l-1,1.65a1.91,1.91,0,0,1-2.62.68l-13.85-8.2a1.92,1.92,0,0,1-.68-2.62l1-1.65m2.34-4,1.17-2a5.36,5.36,0,0,1,7.35-1.88l7.91,4.68a5.37,5.37,0,0,1,1.89,7.35l-1.17,2"/><circle class="cls-19" cx="90.21" cy="15.31" r="0.38"/><circle class="cls-19" cx="92.46" cy="17.53" r="0.38"/><circle class="cls-19" cx="95.22" cy="17.38" r="0.38"/><circle class="cls-19" cx="97.07" cy="20.26" r="0.38"/><circle class="cls-19" cx="100.1" cy="21.16" r="0.38"/><g class="cls-10"><path class="cls-11" d="M81.57,20.88,98.72,31l-.78,1.32L80.79,22.2Z"/></g><path class="cls-13" d="M98.19,31.16,81.7,21.41a2.3,2.3,0,0,1-.8-3.15l.39-.66a2.29,2.29,0,0,1,3.14-.81l16.49,9.75a2.29,2.29,0,0,1,.81,3.15l-.39.66A2.31,2.31,0,0,1,98.19,31.16ZM84,17.45A1.52,1.52,0,0,0,82,18l-.4.66a1.54,1.54,0,0,0,.54,2.1L98.58,30.5a1.53,1.53,0,0,0,2.1-.54l.39-.66a1.53,1.53,0,0,0-.54-2.1Z"/><path class="cls-13" d="M94.92,33.68l-13.85-8.2a2.31,2.31,0,0,1-.81-3.15l1-1.64a.37.37,0,0,1,.52-.14.38.38,0,0,1,.14.53l-1,1.64a1.53,1.53,0,0,0,.54,2.1L95.31,33a1.53,1.53,0,0,0,2.1-.54l1-1.65a.39.39,0,0,1,.52-.14.38.38,0,0,1,.14.53l-1,1.65A2.31,2.31,0,0,1,94.92,33.68Zm5.94-6.28a.39.39,0,0,1-.13-.53l1.17-2a5,5,0,0,0-1.75-6.82l-7.92-4.68a5,5,0,0,0-6.82,1.75l-1.17,2a.39.39,0,0,1-.53.13.37.37,0,0,1-.13-.52l1.17-2a5.75,5.75,0,0,1,7.87-2l7.92,4.68a5.75,5.75,0,0,1,2,7.87l-1.17,2A.4.4,0,0,1,100.86,27.4Z"/><circle class="cls-13" cx="90.21" cy="15.31" r="0.77"/><circle class="cls-13" cx="92.46" cy="17.53" r="0.77"/><circle class="cls-13" cx="95.22" cy="17.38" r="0.77"/><circle class="cls-13" cx="97.07" cy="20.26" r="0.77"/><circle class="cls-13" cx="100.1" cy="21.16" r="0.77"/><path class="cls-20" d="M77.08,104l-1.37,5.68a4.67,4.67,0,0,0,3.46,5.63L111,122.88a4.68,4.68,0,0,0,5.64-3.45l1.36-5.69Z"/><path class="cls-21" d="M130.78,60.33a4.67,4.67,0,0,0-3.46-5.63L95.5,47.08a4.67,4.67,0,0,0-5.63,3.46L77.08,104,118,113.74Z"/><circle class="cls-22" cx="107.87" cy="65.66" r="5.84"/><circle class="cls-22" cx="122.01" cy="61.84" r="1.17"/><path class="cls-6" d="M110.72,124,78.9,116.4a5.85,5.85,0,0,1-4.32-7l14.15-59.1a5.85,5.85,0,0,1,7-4.32l31.82,7.62a5.85,5.85,0,0,1,4.32,7L117.76,119.7A5.85,5.85,0,0,1,110.72,124ZM95.23,48.22A3.51,3.51,0,0,0,91,50.81L76.85,109.9a3.51,3.51,0,0,0,2.59,4.23l31.82,7.62a3.52,3.52,0,0,0,4.23-2.6l14.15-59.09a3.5,3.5,0,0,0-2.59-4.22Z"/><path class="cls-6" d="M117.71,114.88l-40.91-9.8a1.17,1.17,0,0,1,.55-2.27l40.91,9.8a1.17,1.17,0,1,1-.55,2.27Z"/><path class="cls-6" d="M106.24,72.48a7,7,0,1,1,8.45-5.18A7,7,0,0,1,106.24,72.48ZM109,61.12a4.67,4.67,0,1,0,3.46,5.63A4.68,4.68,0,0,0,109,61.12Z"/><circle class="cls-6" cx="122.01" cy="61.84" r="2.34"/><path class="cls-23" d="M43.64,84.78l-2.73.32-3.29-3.39L27.7,82.87l-2.42,4L12.63,88.4A1.87,1.87,0,0,0,11,90.47l1.74,14.89A1.87,1.87,0,0,0,14.8,107l31-3.61a1.87,1.87,0,0,0,1.64-2.08L45.72,86.42A1.88,1.88,0,0,0,43.64,84.78Z"/><circle class="cls-24" cx="19.08" cy="95.19" r="2.5"/><circle class="cls-25" cx="34.03" cy="94.07" r="6.87"/><g class="cls-26"><path class="cls-4" d="M34.83,100.9a6.88,6.88,0,0,1-7.09-9.55,6.87,6.87,0,1,0,10.39,8.22A6.94,6.94,0,0,1,34.83,100.9Z"/></g><circle class="cls-22" cx="34.03" cy="94.07" r="3.75"/><path class="cls-27" d="M22.24,68.41l17.37-2,1.15,9.92-17.36,2Z"/><path class="cls-25" d="M27.7,82.87l-1.82-4.82,12.4-1.45-.66,5.11ZM14.05,84.46l5-.58.44,3.72-5,.58Z"/><circle class="cls-5" cx="34.58" cy="93.38" r="1.25"/><path class="cls-5" d="M22.24,68.41l11.08,8.77,3.35-.39L25.59,68ZM39.8,68,38,66.58l-8.31,1,11.08,8.76Z"/><path class="cls-6" d="M19.52,88.22a.62.62,0,0,1-.69-.55l-.36-3.1L14.75,85l.36,3.1a.62.62,0,0,1-1.24.14l-.44-3.72a.63.63,0,0,1,.55-.69l5-.58a.62.62,0,0,1,.69.55l.44,3.72A.63.63,0,0,1,19.52,88.22Z"/><path class="cls-6" d="M45.88,104l-31,3.61a2.5,2.5,0,0,1-2.77-2.19L10.36,90.55a2.5,2.5,0,0,1,2.19-2.77L24.9,86.34l2.26-3.79a.61.61,0,0,1,.47-.3l9.92-1.16a.63.63,0,0,1,.52.18l3.07,3.17,2.43-.28a2.5,2.5,0,0,1,2.77,2.19l1.73,14.89A2.5,2.5,0,0,1,45.88,104ZM12.7,89a1.25,1.25,0,0,0-1.1,1.38l1.74,14.89a1.25,1.25,0,0,0,1.38,1.09l31-3.61a1.25,1.25,0,0,0,1.09-1.39L45.1,86.5a1.26,1.26,0,0,0-1.39-1.1L41,85.72a.64.64,0,0,1-.52-.19l-3.07-3.17-9.31,1.09-2.27,3.79a.59.59,0,0,1-.46.3Z"/><path class="cls-6" d="M19.44,98.29a3.12,3.12,0,1,1,2.74-3.46A3.13,3.13,0,0,1,19.44,98.29Zm-.58-5A1.87,1.87,0,1,0,20.94,95,1.87,1.87,0,0,0,18.86,93.33Z"/><path class="cls-6" d="M34.9,101.51a7.49,7.49,0,1,1,6.58-8.31A7.5,7.5,0,0,1,34.9,101.51ZM33.31,87.87a6.24,6.24,0,1,0,6.93,5.48A6.26,6.26,0,0,0,33.31,87.87Z"/><path class="cls-6" d="M34.54,98.41a4.37,4.37,0,1,1,3.84-4.84A4.38,4.38,0,0,1,34.54,98.41ZM33.67,91a3.12,3.12,0,1,0,3.47,2.74A3.12,3.12,0,0,0,33.67,91Z"/><path class="cls-6" d="M37.69,82.33h-.15a.63.63,0,0,1-.54-.7l.56-4.31L26.75,78.58l1.53,4.07a.62.62,0,0,1-.36.8.64.64,0,0,1-.81-.36l-1.64-4.36-2,.23a.63.63,0,0,1-.69-.55l-1.16-9.92a.63.63,0,0,1,.55-.7l17.36-2a.62.62,0,0,1,.7.55l1.15,9.92a.62.62,0,0,1-.54.69l-2,.24-.6,4.62A.63.63,0,0,1,37.69,82.33ZM38.22,76l1.85-.21-1-8.69L22.93,69l1,8.69,1.84-.22h0L38.2,76ZM35.3,72.55l-7.45.87a.62.62,0,1,1-.14-1.24l7.44-.87a.62.62,0,0,1,.15,1.24Z"/></g></svg>