<svg xmlns="http://www.w3.org/2000/svg" viewBox="0 0 136 136"><defs><style>.cls-1{fill:#e0e0e0;}.cls-2{fill:#f0494c;}.cls-3{opacity:0.18;}.cls-14,.cls-19,.cls-3,.cls-6{isolation:isolate;}.cls-4{fill:#101129;}.cls-5{fill:#8aaf3f;}.cls-6{opacity:0.4;}.cls-7{fill:#fff;}.cls-8{fill:#2f446a;}.cls-9{fill:#d5e2f4;}.cls-10{fill:#8fa9d8;}.cls-11{fill:#fff4e8;}.cls-12{fill:#f04848;}.cls-13{fill:#f8971d;}.cls-14{opacity:0.25;}.cls-15{fill:#aab437;}.cls-16{fill:#d4dc9a;}.cls-17{fill:#fc9;}.cls-18{fill:#000064;}.cls-19{opacity:0.15;}.cls-20{fill:#2e4369;}.cls-21{fill:#212121;}.cls-22{fill:#f3d111;}.cls-23{fill:#8f5474;}</style></defs><title>cookknow app design</title><g id="text"><path class="cls-1" d="M54.15,38.32C48.49,48,30.21,51,23.85,56c-5.82,4.56-8.92,15.1-8.61,23.5s6.7,16.76,15.08,17.46c3.64.31,7.29-.77,10.94-.52,11.68.8,18.19,13.9,28.46,19.52,11.84,6.48,26.93,1.9,37.89-6,7-5,13.23-11.66,15.45-20s-.66-18.33-8.21-22.41C108,63.91,97.68,64.45,95,57.19c-1.86-5.08,1.76-10.39,2.57-15.73,1.27-8.38-5.1-16.71-13.17-19.27s-15.48-3-21.43,3C60.23,28,56.14,34.9,54.15,38.32Z"/><path class="cls-2" d="M28.11,60.3l1-.26s0,.59-1.27,1.89a13.54,13.54,0,0,1,1.9,1.27,7.29,7.29,0,0,1-3.16.63c-.49,1.4-2.59,2.66-2.59,2.66A10.31,10.31,0,0,1,24.33,64a5.69,5.69,0,0,1-2.27.13,7.76,7.76,0,0,1,.72-.8c-1.47.93-3.57,3-1,7.44s7.37,3.13,9.43,1.07c2.83-.71,6.39-4.24,3.85-8.67S29.66,59.5,28.11,60.3Z"/><g class="cls-3"><path class="cls-4" d="M31.2,70.31c-2,2.08-6.89,3.36-9.43-1.07a8.63,8.63,0,0,1-1.14-3.07,6.67,6.67,0,0,0,1.11,4.56c2.54,4.43,7.37,3.13,9.43,1.07,2.31-.59,5.08-3,4.67-6.32A6.42,6.42,0,0,1,31.2,70.31Z"/></g><path class="cls-5" d="M29.14,60l-1,.26a6.08,6.08,0,0,0-1.88.81,8.51,8.51,0,0,0-1.65-.82,7.39,7.39,0,0,0-.12,1.84,5.43,5.43,0,0,0-1.68,1.16,7.76,7.76,0,0,0-.72.8A5.69,5.69,0,0,0,24.33,64,10.31,10.31,0,0,0,24,66.49s2.1-1.26,2.59-2.66a7.29,7.29,0,0,0,3.16-.63,13.54,13.54,0,0,0-1.9-1.27C29.13,60.63,29.14,60,29.14,60Z"/><g class="cls-3"><path class="cls-4" d="M24,66.49A10.31,10.31,0,0,1,24.33,64a3.6,3.6,0,0,1-1.3.19l-.63.54a7.66,7.66,0,0,0-.72.79A5.69,5.69,0,0,0,24,65.35a10.31,10.31,0,0,0-.31,2.53s2.1-1.26,2.59-2.66a7.15,7.15,0,0,0,3.16-.63s-.64-.51-1.23-.88a5.77,5.77,0,0,1-1.55.12C26.12,65.23,24,66.49,24,66.49Z"/></g><g class="cls-6"><ellipse class="cls-7" cx="31.09" cy="62.04" rx="0.89" ry="1.28" transform="matrix(0.26, -0.96, 0.96, 0.26, -36.94, 75.76)"/></g><path class="cls-8" d="M29.9,63.42h0a7.54,7.54,0,0,1-3.1.66,7.54,7.54,0,0,1-2.63,2.62.24.24,0,0,1-.26,0,.25.25,0,0,1-.13-.22A10.43,10.43,0,0,1,24,64.33a7.12,7.12,0,0,1-2,0,.24.24,0,0,1-.2-.15.27.27,0,0,1,0-.26,7.41,7.41,0,0,1,2.33-2,8.32,8.32,0,0,1,.15-1.72.27.27,0,0,1,.13-.18.26.26,0,0,1,.21,0,9.94,9.94,0,0,1,1.56.75,10.14,10.14,0,0,1,2.85-1,.25.25,0,0,1,.22.05.25.25,0,0,1,.09.2c0,.11-.07.68-1.1,1.82A16.62,16.62,0,0,1,29.93,63a.25.25,0,0,1,.1.23A.26.26,0,0,1,29.9,63.42Zm-7.33.46a4.39,4.39,0,0,0,1.66-.15.24.24,0,0,1,.27,0,.26.26,0,0,1,.08.25,10.29,10.29,0,0,0-.3,2,5.81,5.81,0,0,0,2.09-2.26.25.25,0,0,1,.25-.17,7,7,0,0,0,2.64-.45,10.19,10.19,0,0,0-1.47-1,.23.23,0,0,1-.16-.18.24.24,0,0,1,.06-.23,6.17,6.17,0,0,0,1-1.37,7.35,7.35,0,0,0-2.35.92.24.24,0,0,1-.32,0,7,7,0,0,0-1.29-.66,5.49,5.49,0,0,0-.07,1.43.25.25,0,0,1-.16.28A6,6,0,0,0,22.57,63.88Z"/><path class="cls-8" d="M32.83,71.39A6.33,6.33,0,0,1,31.3,72a7,7,0,0,1-5.53,1.87,5.71,5.71,0,0,1-4.25-3c-2.45-4.29-.75-6.6,1.12-7.78a.26.26,0,0,1,.35.08.25.25,0,0,1-.08.35c-2.44,1.54-2.76,3.93-.95,7.09a5.26,5.26,0,0,0,3.88,2.8A6.47,6.47,0,0,0,31,71.62a.24.24,0,0,1,.12-.07,6.37,6.37,0,0,0,4.13-3.5,5.25,5.25,0,0,0-.44-4.79c-1.79-3.14-4-4.06-6.57-2.73a.26.26,0,0,1-.34-.11.26.26,0,0,1,.11-.35c2.81-1.45,5.32-.43,7.24,2.94a5.7,5.7,0,0,1,.47,5.24A6.8,6.8,0,0,1,32.83,71.39Z"/><path class="cls-9" d="M98.53,22.11a5.68,5.68,0,0,0,5.15,6.07,12.21,12.21,0,0,0,1.76-7.27A11.7,11.7,0,0,0,98.53,22.11Z"/><path class="cls-10" d="M103.65,28.18a8.9,8.9,0,0,1-2.26,6,5.5,5.5,0,0,0-2.23-2.29m-1.8-9.09a9.91,9.91,0,0,0-6.29,2.74s3.09.28,3.18,1.38"/><ellipse class="cls-10" cx="102.27" cy="23.87" rx="0.63" ry="0.66"/><path class="cls-10" d="M90.57,39.69c.38-1.42.69-3.18,1.1-5.13a39.76,39.76,0,0,1-5.09,1S90.07,36.7,90.57,39.69Zm8-17.58a8.66,8.66,0,0,0-2.83,2.45c-2.24,3-3.27,6.7-4,10a38.8,38.8,0,0,0,7.46-2.67,11.25,11.25,0,0,0,4.49-3.71A5.67,5.67,0,0,1,98.53,22.11Z"/><g class="cls-3"><path class="cls-4" d="M103.65,28.18a12.25,12.25,0,0,0,1.79-7.27s-.25,3-3.71,6.7A7.19,7.19,0,0,0,103.65,28.18ZM90.57,39.69c.38-1.42.69-3.18,1.1-5.13l-2.54,2.55A4.54,4.54,0,0,1,90.57,39.69Z"/></g><g class="cls-3"><path class="cls-4" d="M103.65,28.18a7.19,7.19,0,0,1-1.92-.57,32,32,0,0,1-10.06,7,39.07,39.07,0,0,0,7.49-2.67,5.27,5.27,0,0,1,2.26,2.29A8.78,8.78,0,0,0,103.65,28.18Z"/></g><path class="cls-8" d="M101.39,34.47h-.06a.33.33,0,0,1-.23-.18,4.72,4.72,0,0,0-2-2.1c-.09,0-.32-.18-.23-.43a.33.33,0,0,1,.37-.2.28.28,0,0,1,.15.08h0a5.58,5.58,0,0,1,2.08,2,8.9,8.9,0,0,0,1.87-5.41.32.32,0,0,1,.29-.34.32.32,0,0,1,.34.3,9.29,9.29,0,0,1-2.36,6.22A.31.31,0,0,1,101.39,34.47ZM94.25,27.2a.31.31,0,0,1-.31-.28c0-.58-1.76-1-2.89-1.1a.31.31,0,0,1-.27-.21.33.33,0,0,1,.07-.33,10.17,10.17,0,0,1,6.51-2.82.31.31,0,1,1,0,.62,9.28,9.28,0,0,0-5.56,2.2c1,.17,2.68.59,2.76,1.58a.31.31,0,0,1-.28.34Z"/><path class="cls-8" d="M102.27,24.84a1,1,0,1,1,.94-1A1,1,0,0,1,102.27,24.84Zm0-1.32a.35.35,0,1,0,.31.35A.34.34,0,0,0,102.27,23.52Z"/><path class="cls-8" d="M90.57,40h0a.33.33,0,0,1-.3-.26c-.46-2.77-3.75-3.9-3.78-3.91a.3.3,0,0,1-.21-.33.31.31,0,0,1,.27-.28,38.8,38.8,0,0,0,4.9-.92c.72-3.25,1.77-6.93,4-9.93a9,9,0,0,1,2.93-2.54.32.32,0,0,1,.3.56A8.27,8.27,0,0,0,96,24.75a24.6,24.6,0,0,0-3.83,9.38A38.54,38.54,0,0,0,99,31.6a11,11,0,0,0,4.37-3.6.32.32,0,0,1,.44-.08.31.31,0,0,1,.08.43,11.47,11.47,0,0,1-4.62,3.82,39.11,39.11,0,0,1-7.35,2.66c-.11.51-.21,1-.3,1.48-.26,1.26-.5,2.45-.76,3.46A.33.33,0,0,1,90.57,40Zm-2.86-4.3a6.32,6.32,0,0,1,2.83,2.8c.16-.72.32-1.5.48-2.31q.12-.59.24-1.2C90.09,35.28,88.9,35.52,87.71,35.7Z"/><path class="cls-8" d="M103.68,28.49h-.05a6,6,0,0,1-5.42-6.38.33.33,0,0,1,.16-.28,12,12,0,0,1,7.13-1.23.32.32,0,0,1,.26.31c0,2.43-.14,5-1.82,7.45A.32.32,0,0,1,103.68,28.49ZM98.84,22.3a5.32,5.32,0,0,0,4.69,5.53,11.61,11.61,0,0,0,1.6-6.64A11.48,11.48,0,0,0,98.84,22.3Z"/><path class="cls-11" d="M96.14,64.51C88.9,60,87.76,55.32,90.89,49.75l-1.87,3c-3.68,5.91-2.32,10.05,5.25,14.75s16.41,4,19.06-.29l2.81-4.51C113.49,67,103.7,69.21,96.14,64.51Z"/><g class="cls-3"><path class="cls-4" d="M90.24,59c-1.56-2.84-1.25-5.84.67-9.18l0,0L89,52.8c-3.44,5.53-2.48,9.52,3.92,13.87C90.38,64.21,89.55,61.81,90.24,59Z"/></g><path class="cls-12" d="M117,52.43c-4.24-2.64-6.43.17-13.15-4-3.2-2-2.57-2.65-4.26-3.7S94.68,43.66,91.36,49l-.47.75c-3.13,5.57-2,10.25,5.25,14.76s17.35,2.45,20-1.8C116.63,61.92,121.22,55.07,117,52.43Z"/><path class="cls-11" d="M111,56.57a1,1,0,0,0-.86-1h0l-7.49-1.27-2.94-5.17a1,1,0,0,0-1.28-.33.86.86,0,0,0-.37,1l1.56,5.25L96.73,58.3a.87.87,0,0,0-.07,1.26l.24.15A1,1,0,0,0,98,59.66L102.26,57l7.76.29A.87.87,0,0,0,111,56.57Z"/><path class="cls-8" d="M95.91,64.88c-7.48-4.65-9-9.62-5-16.13s7.53-5.23,8.85-4.4a4.91,4.91,0,0,1,1.47,1.35A9.52,9.52,0,0,0,104.06,48,14.88,14.88,0,0,0,112,50.6a9.9,9.9,0,0,1,5.23,1.46,4,4,0,0,1,1.85,2.47c.54,2.06-.31,4.93-2.46,8.31l-.07.12c-1.39,2.23-4.63,3.93-8.47,4.45A18.26,18.26,0,0,1,95.91,64.88ZM99.34,45.1c-2.29-1.43-5,.09-7.58,4.15-3.78,6.06-2.4,10.51,4.61,14.88,7.54,4.69,16.94,2.22,19.37-1.67l.08-.12c2-3.13,2.82-5.84,2.35-7.63a3,3,0,0,0-1.42-1.9A9.08,9.08,0,0,0,112,51.5a15.77,15.77,0,0,1-8.39-2.71,10.26,10.26,0,0,1-3-2.56A4.28,4.28,0,0,0,99.34,45.1Z"/><path class="cls-8" d="M94,67.89c-7.77-4.84-9.29-9.15-5.41-15.38l1.87-3a.46.46,0,0,1,.63-.12.45.45,0,0,1,.17.62l-1.87,3c-3.59,5.76-2.21,9.59,5.08,14.13,7.56,4.7,16,3.79,18.43-.17l2.81-4.51a.46.46,0,0,1,.63-.13.47.47,0,0,1,.17.63l-2.81,4.51C111,71.79,102.05,72.88,94,67.89Z"/><path class="cls-8" d="M96.45,59.9l-.11-.09a1.34,1.34,0,0,1,.07-1.88l2.65-3-1.49-5a1.29,1.29,0,0,1,.56-1.51,1.47,1.47,0,0,1,1.93.49l2.84,5,7.25,1.23a1.45,1.45,0,0,1,1.28,1.51.13.13,0,0,1,0,.06,1.3,1.3,0,0,1-1.38,1l-7.61-.29L98.3,60a1.4,1.4,0,0,1-1.6.06Zm.55-.71.16.11a.48.48,0,0,0,.54,0l0,0L102,56.57a.48.48,0,0,1,.26-.07l7.76.29a.44.44,0,0,0,.47-.31.51.51,0,0,0-.43-.48l-7.52-1.27a.47.47,0,0,1-.35-.24l-2.94-5.17a.49.49,0,0,0-.63-.14.42.42,0,0,0-.18.51L100,55a.41.41,0,0,1-.08.4l-2.83,3.2,0,0A.42.42,0,0,0,97,59.19Z"/><path class="cls-13" d="M69.06,33.84c-1.72-1.72-3.85-2.36-5.31-.89C60,36.76,54.06,47.06,54.92,48s11.5-5.28,15-8.84C71.41,37.65,70.78,35.52,69.06,33.84Z"/><g class="cls-3"><path class="cls-4" d="M70.27,37.52c-3.53,3.56-14.15,9.73-15,8.84l-.06-.1c-.35.89-.44,1.5-.25,1.69.89.89,11.47-5.31,15-8.84a2.67,2.67,0,0,0,.79-2.22A3.09,3.09,0,0,1,70.27,37.52Z"/></g><g class="cls-14"><path class="cls-7" d="M58.35,42.45l-.16.28c-1.33,2.64,10.3-8.2,9.25-9.12a3.21,3.21,0,0,0-1.56-.51,1.71,1.71,0,0,0-1.24.54,47,47,0,0,0-6.26,8.81Z"/></g><path class="cls-8" d="M55.22,48.35a.72.72,0,0,1-.53-.18c-.7-.7,1-4.08,2.6-6.79.65-1.11,1.43-2.38,2.27-3.63l0,0a35.72,35.72,0,0,1,3.89-5c1.42-1.42,3.56-1.15,5.51.65a2.94,2.94,0,0,0,.28-2.12,4.46,4.46,0,0,0-.92-2.05.32.32,0,0,1,.45-.45,5.07,5.07,0,0,1,1.09,2.38A4.23,4.23,0,0,1,70,32.44l1.5-1.5a.33.33,0,0,1,.45,0,.31.31,0,0,1,0,.45l-1.5,1.5a4.55,4.55,0,0,1,1.31.07,5.07,5.07,0,0,1,2.39,1.1.31.31,0,0,1,0,.44.31.31,0,0,1-.45,0,4.56,4.56,0,0,0-2.06-.92,2.9,2.9,0,0,0-2.11.28,5.08,5.08,0,0,1,1.55,3.32,3,3,0,0,1-.91,2.16c-3.25,3.28-12.73,9-14.92,9Zm-.07-.64c.62.18,3.8-1.37,7.15-3.4l-1.89-1.86a.32.32,0,0,1,.45-.45l2,2c1.26-.79,2.54-1.63,3.69-2.47l-1.72-1.72a.32.32,0,0,1,.45-.45l1.78,1.79a26.11,26.11,0,0,0,2.63-2.23,2.33,2.33,0,0,0,.72-1.71,4.73,4.73,0,0,0-1.6-3.12h0c-1.32-1.33-3.39-2.35-4.85-.89a14.63,14.63,0,0,0-1,1.13l2.36,2.39a.33.33,0,0,1,0,.45.31.31,0,0,1-.45,0l-2.32-2.35c-.74.92-1.51,2-2.25,3.08l1.49,1.46a.31.31,0,0,1,0,.45.31.31,0,0,1-.44,0L59.9,38.4C57.23,42.45,54.92,47,55.15,47.71Z"/><path class="cls-15" d="M40.38,28.59a2.67,2.67,0,0,0-5.21-.83,5,5,0,0,0-8.93,4.08,2.29,2.29,0,0,0-2,2.5,2.21,2.21,0,0,0,.25.84l-.33.18a3.43,3.43,0,0,0,3.25,6l.44-.23A2.29,2.29,0,0,0,31.63,40l-1.4-2.1a4.91,4.91,0,0,0,3.91-3.67,5,5,0,0,0,3.09.84l.53,1.71a2.68,2.68,0,0,0,4.18-2.38l.2-.11a3,3,0,0,0-1.76-5.67Z"/><g class="cls-3"><path class="cls-4" d="M42,33.09l-.23.12a2.67,2.67,0,0,1-2.48,2.85,2.61,2.61,0,0,1-1.69-.47l-.53-1.7a5,5,0,0,1-3.1-.84A4.92,4.92,0,0,1,30,36.68a3.93,3.93,0,0,1-2.82-.25c1.33,1.49,1.35,2.74.42,3.5l-.47.25a3.4,3.4,0,0,1-4.61-1.32,3.06,3.06,0,0,1-.22-.49,3.43,3.43,0,0,0,5.05,3l.44-.23A2.29,2.29,0,0,0,31.63,40l-.43-.63-1-1.47.52-.15a4.94,4.94,0,0,0,3.41-3.57,5,5,0,0,0,3.09.84l.53,1.71A2.67,2.67,0,0,0,42,34.32l.24-.13a3.06,3.06,0,0,0,1.38-3.78A3.06,3.06,0,0,1,42,33.09Z"/></g><path class="cls-16" d="M34.14,34.2a4.91,4.91,0,0,1-3.91,3.67l1.38,2.07,3,4.47,4.69-2.53-1.56-5.13L37.23,35A5,5,0,0,1,34.14,34.2Z"/><g class="cls-3"><path class="cls-4" d="M37.23,35a5,5,0,0,1-3.09-.84,4.91,4.91,0,0,1-3.91,3.67l1.38,2.07,3,4.47,1.14-.61c-1-1.62-2.43-3.93-3.13-5.07A6.21,6.21,0,0,0,35,36a3.6,3.6,0,0,0,2.81.73Z"/></g><path class="cls-8" d="M39.54,42.28l-4.7,2.54a.37.37,0,0,1-.49-.13l-4.42-6.58a.37.37,0,0,1,.11-.52.38.38,0,0,1,.53.1L34.79,44l1.37-.74-2.71-5a.38.38,0,0,1,.67-.36l2.71,5,2.07-1.12-2-6.57a.38.38,0,1,1,.73-.23l2.1,6.88A.36.36,0,0,1,39.54,42.28Z"/><path class="cls-8" d="M39.46,34.84h0a5.32,5.32,0,0,1-5.08,0,5.37,5.37,0,0,1-5.92,3.48.39.39,0,0,1-.31-.44.38.38,0,0,1,.44-.31,4.6,4.6,0,0,0,5.2-3.41.38.38,0,0,1,.23-.26.36.36,0,0,1,.35,0,4.57,4.57,0,0,0,4.73.25.39.39,0,0,1,.52.15A.38.38,0,0,1,39.46,34.84Z"/><path class="cls-8" d="M40.73,37.3a2.94,2.94,0,0,1-.92.31,3,3,0,0,1-2.28-.5.38.38,0,1,1,.44-.62,2.29,2.29,0,0,0,3.18-.57,2.31,2.31,0,0,0,.41-1.44.38.38,0,0,1,.2-.36L42,34a2.67,2.67,0,0,0,1.06-3.62A2.66,2.66,0,0,0,40.43,29a.36.36,0,0,1-.29-.1.37.37,0,0,1-.13-.28,2.29,2.29,0,0,0-2.27-2.3,2.27,2.27,0,0,0-2.19,1.59.39.39,0,0,1-.69.09,4.57,4.57,0,0,0-8.24,3.76.36.36,0,0,1,0,.32.38.38,0,0,1-.28.17,1.9,1.9,0,0,0-1.7,2.09,1.88,1.88,0,0,0,.22.73.42.42,0,0,1,0,.29.39.39,0,0,1-.19.23l-.33.18a3,3,0,1,0,2.89,5.36l.44-.23a.36.36,0,0,1,.44.06,1.91,1.91,0,0,0,2.69-.07,1.87,1.87,0,0,0,.49-.93.38.38,0,1,1,.74.16,2.6,2.6,0,0,1-.68,1.3,2.67,2.67,0,0,1-3.55.27l-.21.11A3.81,3.81,0,0,1,24,35.1h0a2.6,2.6,0,0,1-.15-.67,2.68,2.68,0,0,1,1.95-2.85A5.33,5.33,0,0,1,35.11,27a3.06,3.06,0,0,1,4.79-.58,3,3,0,0,1,.85,1.76,3.43,3.43,0,0,1,1.61,6.44l0,0a3,3,0,0,1-.54,1.68A3.25,3.25,0,0,1,40.73,37.3Z"/><path class="cls-17" d="M83,97.91l6.18-7.34L72.38,81.69,66,89l-6.41-7.26L42.8,90.57,49,98.06l-6.18,7.49,6.56,3.94H49v9.19l17,9,17-9v-9.19h-.31l6.49-3.94Z"/><g class="cls-14"><path class="cls-7" d="M83,98.29l-17,8.89,7.49,7.72,15.68-9.11Zm-34-.23L42.8,90.57l16.76-8.88L65.89,89Z"/></g><g class="cls-14"><path class="cls-18" d="M65.89,89.34,49,98.45l17,8.73,17-8.89Z"/></g><g class="cls-19"><path class="cls-18" d="M72.38,81.69,65.89,89l17.07,9,6.18-7.42ZM49,98.06,42.8,105.4,49,109v9.73L66,128V107.18h-.39l.39-.39Z"/></g><path class="cls-20" d="M66,128.8a.74.74,0,0,1-.36-.09l-17-9a.76.76,0,0,1-.41-.68v-9.5a.78.78,0,0,1,1.55,0v9L66,127.16l16.21-8.56v-9a.78.78,0,0,1,1.55,0v9.5a.76.76,0,0,1-.41.68l-17,9A.8.8,0,0,1,66,128.8Z"/><path class="cls-20" d="M66,128.8a.78.78,0,0,1-.78-.77v-19l-6.08,6.28a.77.77,0,0,1-.94.13l-15.76-9a.77.77,0,0,1-.37-.54.76.76,0,0,1,.17-.63L48,98.44l-5.77-7a.75.75,0,0,1-.16-.64.76.76,0,0,1,.4-.54l16.75-8.88a.79.79,0,0,1,1,.18l5.76,6.6,5.9-6.61a.79.79,0,0,1,.94-.17L89.49,90.2a.75.75,0,0,1,.4.53.73.73,0,0,1-.16.64L84,98.3l5.77,7a.77.77,0,0,1,.17.63.75.75,0,0,1-.38.53l-15.67,9.12a.8.8,0,0,1-.95-.13l-6.16-6.36v19A.78.78,0,0,1,66,128.8Zm.55-22.16,7.07,7.29L88,105.58l-5.6-6.79a.78.78,0,0,1,0-1l5.57-6.68L72.55,83l-6.08,6.81a.8.8,0,0,1-.58.26h0a.74.74,0,0,1-.57-.27l-5.93-6.79L44,91.2,49.57,98a.77.77,0,0,1,0,1L44,105.58l14.44,8.27,7-7.21h0l0,0h0a.72.72,0,0,1,.47-.19h.15a.81.81,0,0,1,.41.19S66.51,106.63,66.52,106.64Z"/><path class="cls-20" d="M66,108a.77.77,0,0,1-.36-.09l-17-8.72a.82.82,0,0,1-.42-.68.79.79,0,0,1,.41-.69l16.91-9.11a.76.76,0,0,1,.73,0l17.07,9a.78.78,0,0,1,.41.69.77.77,0,0,1-.42.68l-17,8.88A.73.73,0,0,1,66,108ZM50.63,98.43,66,106.31l15.33-8-15.4-8.08Z"/><path class="cls-21" d="M45.71,83.24l3.9.08a.51.51,0,0,0,.48-.63c-.22-1.27-.49-2.52-.81-3.77a.49.49,0,0,0-1,.26c.31,1.25.58,2.51.8,3.77l.48-.63-3.9-.07a.5.5,0,0,0,0,1Z"/><path class="cls-21" d="M49.93,82.26a28.76,28.76,0,0,0-12.84-7.64.49.49,0,0,0-.27.95A27.75,27.75,0,0,1,49.23,83c.44.46,1.15-.25.7-.71Z"/><path class="cls-21" d="M62.16,75.58l1.78,2.26L64.81,79a.83.83,0,0,0,1.08.33,3.59,3.59,0,0,0,.89-.93l.91-1.07L69.62,75c.41-.48-.29-1.18-.7-.7l-1.8,2.1-.87,1-.44.52c0,.06-.34.43-.35.43l.25.06c-.14-.06-.23-.24-.32-.36l-.34-.42-.74-1-1.45-1.85a.5.5,0,0,0-.7,0,.51.51,0,0,0,0,.71Z"/><path class="cls-21" d="M65.74,78.19q0-9-.5-17.9c0-.63-1-.63-1,0q.5,9,.5,17.9a.5.5,0,0,0,1,0Z"/><path class="cls-21" d="M83.16,78.5v2.9a4.76,4.76,0,0,0,0,1.36.8.8,0,0,0,1,.52c.91-.17,1.82-.45,2.72-.68l2.85-.71a.5.5,0,0,0-.26-1l-4.8,1.2-.57.15c-.15,0-.26,0-.1.12s.1,0,.1-.11V78.5a.5.5,0,0,0-1,0Z"/><path class="cls-21" d="M84.3,82.53A59.92,59.92,0,0,1,93.77,73c.5-.4-.21-1.09-.7-.7a59.92,59.92,0,0,0-9.47,9.5c-.4.49.3,1.2.7.7Z"/><path class="cls-5" d="M18.86,82.06c0-.56-.3-.49-.43-.17l-2.77,6.83c-.26.66-.2,1.6,1.36,2.64a3.16,3.16,0,0,0,2.24.72l-.08-3.91Z"/><g class="cls-3"><path class="cls-4" d="M18.86,82.06c0-.56-.3-.49-.43-.17l-2.77,6.83c-.26.66-.2,1.6,1.36,2.64a3.16,3.16,0,0,0,2.24.72l-.08-3.91Z"/></g><path class="cls-5" d="M25.28,86.67c.43-.44.1-.63-.39-.47l-5.71,2,.1,3.92a1.86,1.86,0,0,0,.84-.39C20.6,91.32,23.7,88.25,25.28,86.67Z"/><path class="cls-22" d="M22.93,86.89c.51-.76,3.35-5,1.33-6.32S19.7,83.06,19,84.14l.2,4Z"/><g class="cls-3"><path class="cls-4" d="M24.18,80.52c-2-1.2-4.49,2.56-5.2,3.62l.08,1.61C19.86,84.55,22,80.39,24.18,80.52Z"/></g><path class="cls-8" d="M16.11,92.78a.25.25,0,0,1-.07-.34l.8-1.2a.25.25,0,0,1,.34-.07.24.24,0,0,1,.06.34l-.8,1.2A.24.24,0,0,1,16.11,92.78Zm3-.49A.24.24,0,0,1,19,92.1l-.1-3.92a.25.25,0,0,1,.23-.25.25.25,0,0,1,.25.24l.1,3.91a.24.24,0,0,1-.37.21Zm3.65-5.2a.24.24,0,0,1-.07-.33v0a15.85,15.85,0,0,0,1.59-2.9q.9-2.31-.21-3.06c-.74-.49-1.69-.21-2.81.84a16.29,16.29,0,0,0-2.12,2.65l0,0a.24.24,0,0,1-.33.07.25.25,0,0,1-.07-.34l0,0A17,17,0,0,1,21,81.26q2-1.85,3.41-.89c.95.64,1.08,1.86.39,3.63a16.24,16.24,0,0,1-1.64,3v0A.24.24,0,0,1,22.8,87.09Z"/><path class="cls-8" d="M16.89,91.56c-1.72-1.14-1.74-2.23-1.45-2.93l2.77-6.83c.11-.28.31-.43.52-.39s.35.16.37.64l.3,5.79L24.81,86c.39-.13.72-.08.85.14s.14.36-.21.72l-.76.75c-1.62,1.62-3.84,3.85-4.42,4.3C19.36,92.6,18.28,92.49,16.89,91.56Zm1.73-9.5-2.73,6.75c-.32.78.1,1.58,1.27,2.35,1.54,1,2.29.76,2.82.35s2.76-2.64,4.37-4.26l.76-.75h0l.09-.11a.84.84,0,0,0-.23,0l-5.71,2a.2.2,0,0,1-.21,0h0a.22.22,0,0,1-.1-.18l-.32-6.11Z"/><path class="cls-23" d="M61.94,20.43h0c-.23-.06-.54-.16-.88-.22a6.31,6.31,0,0,1-5-3.81l0,0a2.18,2.18,0,0,0-.8-1v2.52l-1.93-1-1.09,1.92c1.18,3.25,5.12,7.86,8.44,8.16L61,27a2.58,2.58,0,0,0,1.61-.41,3.36,3.36,0,0,0-.64-6.18Z"/><path class="cls-5" d="M55.2,17.88V15.36a2.16,2.16,0,0,0-3.37,1.8,5.15,5.15,0,0,0,.35,1.68l1.09-1.92Z"/><g class="cls-3"><path class="cls-4" d="M61.93,26.06l-.35,0c-3.32-.31-7.26-4.91-8.44-8.16,0-.16-.11-.32-.15-.47l-.81,1.43c1.18,3.25,5.12,7.86,8.44,8.16L61,27a2.58,2.58,0,0,0,1.61-.41,3.37,3.37,0,0,0,1.2-1.11l-.24.15A2.58,2.58,0,0,1,61.93,26.06Z"/></g><g class="cls-3"><path class="cls-4" d="M52.79,16.2a2.24,2.24,0,0,1,.23-1,2.17,2.17,0,0,0-1.19,1.94,5.15,5.15,0,0,0,.35,1.68L53,17.41A4.51,4.51,0,0,1,52.79,16.2Z"/></g><g class="cls-14"><ellipse class="cls-7" cx="61.9" cy="22.65" rx="0.96" ry="1.32" transform="translate(2.12 50.4) rotate(-45)"/></g><path class="cls-8" d="M52.18,19.08h0a.22.22,0,0,1-.21-.15,5.32,5.32,0,0,1-.37-1.76A2.41,2.41,0,0,1,54,14.75h0a2.35,2.35,0,0,1,1.33.41.24.24,0,0,1,.11.2v2.52a.24.24,0,0,1-.12.2.21.21,0,0,1-.23,0l-1.72-.86-1,1.73A.22.22,0,0,1,52.18,19.08ZM54,15.23h0a1.93,1.93,0,0,0-1.92,1.93,4.5,4.5,0,0,0,.17,1.09l.82-1.45a.26.26,0,0,1,.32-.1l1.58.79v-2A1.89,1.89,0,0,0,54,15.23Z"/><path class="cls-8" d="M61,27.26l-.36,0c-1.57-.14-3.41-1.23-5.17-3A15.76,15.76,0,0,1,52,18.92a.22.22,0,0,1,.14-.3.24.24,0,0,1,.31.14c1.23,3.39,5.18,7.72,8.23,8l.33,0a2.35,2.35,0,0,0,1.46-.36l0,0A3.13,3.13,0,0,0,64,24.54a3.14,3.14,0,0,0-2.1-3.88H61.8a7.2,7.2,0,0,0-.81-.21,6.57,6.57,0,0,1-5.21-4,1.93,1.93,0,0,0-.72-.9.23.23,0,0,1-.06-.33.24.24,0,0,1,.33-.07,2.43,2.43,0,0,1,.89,1.11A6.13,6.13,0,0,0,61.09,20a7.36,7.36,0,0,1,.85.22H62a3.61,3.61,0,0,1,2.41,4.47,3.57,3.57,0,0,1-1.72,2.14,2.83,2.83,0,0,1-1.74.45ZM52,16.47a.25.25,0,0,1-.23-.15,2.18,2.18,0,0,1,.09-2,1.89,1.89,0,0,1,1.62-.73.24.24,0,1,1,0,.48,1.39,1.39,0,0,0-1.22.52,1.73,1.73,0,0,0,0,1.6.24.24,0,0,1-.14.31Z"/><circle class="cls-2" cx="119.74" cy="84.44" r="3.37"/><circle class="cls-2" cx="126.96" cy="83" r="3.37"/><g class="cls-3"><path class="cls-4" d="M117.1,83.48a3.34,3.34,0,0,1,.36-1.49A3.37,3.37,0,1,0,122,87a3.28,3.28,0,0,0,.76-1,3.36,3.36,0,0,1-5.65-2.48Zm10.58,1.93A3.36,3.36,0,0,1,124.33,82a3.29,3.29,0,0,1,.35-1.48,3.37,3.37,0,1,0,4.53,5,3.58,3.58,0,0,0,.76-1A3.39,3.39,0,0,1,127.68,85.41Z"/></g><g class="cls-6"><ellipse class="cls-7" cx="120.47" cy="82.64" rx="0.96" ry="0.84"/></g><g class="cls-6"><ellipse class="cls-7" cx="127.92" cy="81.2" rx="0.96" ry="0.84"/></g><path class="cls-8" d="M119.74,88.05a3.61,3.61,0,1,1,3.61-3.61A3.61,3.61,0,0,1,119.74,88.05Zm0-6.73a3.13,3.13,0,1,0,3.13,3.12A3.12,3.12,0,0,0,119.74,81.32Z"/><path class="cls-8" d="M127,86.61A3.61,3.61,0,1,1,130.57,83,3.61,3.61,0,0,1,127,86.61Zm0-6.74A3.13,3.13,0,1,0,130.09,83,3.14,3.14,0,0,0,127,79.87Z"/><path class="cls-8" d="M119.74,81.32a.25.25,0,0,1-.24-.24,11.09,11.09,0,0,1,3-7.46h-1.3a.24.24,0,1,1,0-.48h3.37a.24.24,0,0,1,0,.48H123.4A8.91,8.91,0,0,0,127,79.44a.24.24,0,0,1-.28.39,9.47,9.47,0,0,1-3.8-6,10.69,10.69,0,0,0-3,7.23.25.25,0,0,1-.24.25Z"/></g></svg>