<svg xmlns="http://www.w3.org/2000/svg" viewBox="0 0 136 136"><defs><style>.cls-1{fill:#e0e0e0;}.cls-2{fill:#ef5940;}.cls-3{fill:#bb806c;}.cls-4{fill:#e8ddc9;}.cls-14,.cls-5{fill:#000064;}.cls-5{opacity:0.2;}.cls-10,.cls-13,.cls-5{isolation:isolate;}.cls-6{fill:none;stroke:#2e4369;stroke-linecap:round;stroke-linejoin:round;stroke-width:2px;}.cls-7{fill:#bacae9;}.cls-8{fill:#2e4369;}.cls-9{fill:#fc9;}.cls-10{opacity:0.25;}.cls-11{fill:#fff;}.cls-12{fill:#e0eafc;}.cls-13{opacity:0.15;}</style></defs><title>cookknow app design</title><g id="text"><path class="cls-1" d="M48.77,85.16c-5.1-2.6-11.52-2.75-17.23-3.66-5.32-.85-15-4.56-18.88-8.58C6,66,6.37,50.81,16.48,46c11.6-5.56,26.18-.46,38.75,1.19,19.4,2.55,23.57-12.43,42.44-15,7.22-1,17.52,1.18,21,8.53,4.48,9.32-1.47,20,5.26,28.89,2.52,3.31,18.8,17.23,2.18,22.71-6,2-12,3.24-18.13,4.69-5.85,1.4-11.55,3.08-16.8,6.05-7,4-14.72,9.88-22.8,5.89C58.05,103.75,58.25,90,48.77,85.16Z"/><path class="cls-2" d="M121.43,66.16V55.72H115V61Z"/><path class="cls-3" d="M99.26,78.6h12.87V94.34H99.26Z"/><path class="cls-4" d="M105.7,53.57,90,66.16V94.34h9.3V78.6h12.87V94.34h9.3V66.16Z"/><path class="cls-5" d="M105.7,57.15l15.73,12.58V66.16L105.7,53.57,90,66.16V94.34h3.58V67.16Z"/><path class="cls-5" d="M101.41,80.75v2.14h6.43V94.34H110V80.75Z"/><path class="cls-6" d="M84.24,70.74,105.7,53.57l21.45,17.17M99.26,94.34V78.6h12.87V94.34"/><path class="cls-6" d="M90,66.16V94.34h31.47V55.72H115V61"/><path class="cls-7" d="M68.94,86.38a1.4,1.4,0,1,1-2-2l4.2-4.2H57.43a1.4,1.4,0,1,1,0-2.79H71.16L67,73.29a1.4,1.4,0,0,1,2-2l7.5,7.5Z"/><path class="cls-8" d="M68,87.25a1.83,1.83,0,0,1-1.31-.54,1.85,1.85,0,0,1,0-2.63l3.4-3.4H57.43a1.87,1.87,0,0,1,0-3.73H70L66.7,73.62a1.86,1.86,0,0,1,0-2.64,1.91,1.91,0,0,1,2.63,0l7.5,7.5a.47.47,0,0,1,0,.66l-7.56,7.57A1.85,1.85,0,0,1,68,87.25ZM57.43,77.88a.93.93,0,0,0,0,1.86H71.16a.47.47,0,0,1,.43.29.48.48,0,0,1-.1.51l-4.2,4.19a.94.94,0,0,0,0,1.32,1,1,0,0,0,1.32,0h0l7.24-7.24-7.18-7.17a1,1,0,0,0-1.31,0,.92.92,0,0,0,0,1.32l4.13,4.13a.48.48,0,0,1,.1.51.46.46,0,0,1-.43.28H57.43Z"/><path class="cls-9" d="M9.08,91.69V68.45l6.64-10H35.65l6.64,10V91.69Z"/><g class="cls-10"><path class="cls-11" d="M15.72,58.49l-6.64,10H42.29l-6.64-10Z"/></g><path class="cls-12" d="M13.51,82.84H24.58v4.43H13.51Z"/><g class="cls-13"><path class="cls-14" d="M12.4,68.45V88.93H42.29v2.76H9.08V68.45Z"/></g><path class="cls-8" d="M42.29,92.25H9.08a.55.55,0,0,1-.55-.55V68.45h0a.57.57,0,0,1,.1-.31l6.63-10a.56.56,0,0,1,.46-.25H35.65a.56.56,0,0,1,.46.25l6.63,10a.57.57,0,0,1,.1.31h0V91.7A.55.55,0,0,1,42.29,92.25ZM9.64,91.14H41.73V69H9.64Zm.48-23.24H41.25l-5.9-8.85H16Z"/><path class="cls-8" d="M24.58,87.82H13.51a.55.55,0,0,1-.55-.55V82.84a.55.55,0,0,1,.55-.55H24.58a.55.55,0,0,1,.55.55v4.43A.55.55,0,0,1,24.58,87.82ZM14.06,86.71H24V83.39h-10ZM25.68,69a.56.56,0,0,1-.55-.56v-10a.56.56,0,0,1,1.11,0v10A.56.56,0,0,1,25.68,69Z"/></g></svg>