<svg xmlns="http://www.w3.org/2000/svg" viewBox="0 0 25 17.5"><defs><style>.cls-1{fill:#c4c4c4;}</style></defs><title>Asset 19</title><g id="Layer_2" data-name="Layer 2"><g id="Layer_1-2" data-name="Layer 1"><path class="cls-1" d="M16.63,8.75A1.91,1.91,0,0,1,15,7.84L12.5,3.67,10,7.84a1.91,1.91,0,0,1-1.62.92,1.88,1.88,0,0,1-.52-.08L2.5,7.15v7a1.23,1.23,0,0,0,1,1.21l8.44,2.12a2.74,2.74,0,0,0,1.21,0l8.46-2.12a1.25,1.25,0,0,0,.94-1.21V7.15L17.15,8.68A1.81,1.81,0,0,1,16.63,8.75Zm8.31-4.38-2-4A.62.62,0,0,0,22.27,0L12.5,1.25l3.58,5.94a.65.65,0,0,0,.73.29l7.73-2.21a.65.65,0,0,0,.4-.9ZM2.08.35l-2,4a.64.64,0,0,0,.39.9l7.73,2.2a.64.64,0,0,0,.73-.28L12.5,1.25,2.73,0a.62.62,0,0,0-.65.34Z"/></g></g></svg>