<svg xmlns="http://www.w3.org/2000/svg" viewBox="0 0 23.27 23.28"><defs><style>.cls-1{fill:#c4c4c4;fill-rule:evenodd;}</style></defs><title>Asset 28</title><g id="Layer_2" data-name="Layer 2"><g id="Layer_1-2" data-name="Layer 1"><path class="cls-1" d="M11.64,0A11.64,11.64,0,1,0,23.27,11.64,11.64,11.64,0,0,0,11.64,0Zm6.29,10.92-2.58,2.49L16,16.93a.78.78,0,0,1-1.13.81l-3.19-1.66-3.2,1.66a.78.78,0,0,1-1.13-.81l.61-3.52L5.34,10.92A.77.77,0,0,1,5.77,9.6l3.57-.51,1.59-3.2a.79.79,0,0,1,1.41,0l1.59,3.2,3.57.51A.77.77,0,0,1,17.93,10.92Z"/></g></g></svg>