<svg xmlns="http://www.w3.org/2000/svg" viewBox="0 0 1000 1000.06"><defs><style>.cls-1{fill:#bf8b2e;}.cls-2{fill:#fff;}</style></defs><title>svg12</title><g id="Layer_2" data-name="Layer 2"><g id="Layer_1-2" data-name="Layer 1"><rect id="_Path_" data-name=" Path " class="cls-1" width="1000" height="1000.06"/><polygon id="_Path_2" data-name=" Path 2" class="cls-2" points="99.82 131.41 100.13 131.41 100.13 285.76 134.03 285.76 134.03 84.12 106.94 84.12 75.73 120.71 75.73 156.09 76.02 156.09 99.82 131.41"/><path id="_Path_3" data-name=" Path 3" class="cls-2" d="M154.24,125.77v24.37h30.92V124.86c0-12.18,6-15.75,13.09-15.75,6.55,0,12.19,2.67,12.19,15.17v16.64c0,16.67-1.48,23.2-12.5,34.8l-19,20.23c-18.43,19.63-25.29,32.71-25.29,52.64v37.18h88V258.1h-55.6v-9.51c0-15.77,5.65-21.71,14.27-30.93L222,194.76c17.55-18.73,21.42-30.64,21.42-50.86V124.28c0-28.86-14-42.53-44.32-42.53-29.74,0-44.9,15.76-44.9,44"/><path id="_Path_4" data-name=" Path 4" class="cls-2" d="M778.55,535.71C737.77,503.5,688.87,500,669.74,500c-10.09,0-19.43.9-26.27,2.53l-2.68.62C615,509.28,571.73,519.49,521.4,582l-1.48,1.83a6.43,6.43,0,0,0-.37,7.09l1.14,1.87q12.46,20.85,20.7,36.21a6.65,6.65,0,0,0,9,2.87,6.83,6.83,0,0,0,1.8-1.36c.35-.46.71-1,1-1.32,43.42-60.11,77.48-68.11,100-73.44L656,555a65.87,65.87,0,0,1,13.8-1.17c10.48,0,46.91,1.74,75.33,24.18,25.29,20,38.11,51.84,38.11,94.75,0,71.92-34.79,100-64,110.84a101.73,101.73,0,0,1-35.68,6.28A126.76,126.76,0,0,1,630,777.72l-2.09-1c-25.11-10.9-62.6-33.63-98-104.81C457.2,525.91,396.16,512.13,355.74,503l-2.12-.47c-3.1-.71-11.84-2.34-26-2.34-23.4,0-68.42,4.6-107,35.4-26.34,21-57.76,61.83-57.76,137,0,45.77,9.43,76,33.6,107.79,4.54,6.2,46.65,60.58,127.5,60.58a196.45,196.45,0,0,0,36.92-3.62c14.76-2.82,37.54-10.12,63-28.78l21.25,19.18a6.36,6.36,0,0,0,8.63-.4,5.61,5.61,0,0,0,1.53-4L471.73,722v-1.18a6.08,6.08,0,0,0-6.26-6h0L366.81,742l-1.88.31a5.77,5.77,0,0,0-3.13,1.81,6.1,6.1,0,0,0,.36,8.62l.06.05,20.43,18.48c-10.74,6.59-21.48,11-31.92,13a140.07,140.07,0,0,1-26.16,2.56c-55.87,0-83.36-36.67-84.49-38.22l-.55-.76c-17-22.33-22.74-41.34-22.74-75.34,0-43.06,12.6-75,37.45-94.8C281.89,555.68,317.47,554,327.73,554a70,70,0,0,1,14,1.17l2.18.49c32.26,7.31,76.44,17.31,137.7,140.35C514,761,554.53,803.41,605.52,825.81c5.93,3,37.56,18.11,78.1,18.11a155.68,155.68,0,0,0,54.5-9.67c29.78-11.11,99.08-49.1,99.08-161.42C837.17,597.75,805.29,556.83,778.55,535.71Z"/><g id="_Group_" data-name=" Group "><path id="_Compound_Path_" data-name=" Compound Path " class="cls-2" d="M332.84,127.93v37.49H319.1V83.68h20C353,83.68,358,90.55,358,102v10.49c0,8.8-3.14,14-11,15.79l13.14,37.13h-14.4Zm0-33v25.4h4.58c4.71,0,6.76-2.41,6.76-6.75v-12c0-4.46-2.05-6.63-6.76-6.63Z"/><path id="_Compound_Path_2" data-name=" Compound Path 2" class="cls-2" d="M365.39,83.68h32.79V94.9h-19v23.38H392.8v11.1H379.14v24.83h19v11.21H365.39Z"/><path id="_Compound_Path_3" data-name=" Compound Path 3" class="cls-2" d="M404.69,147.82v-11h12.78V148c0,4.58,2,7.24,6.75,7.24,4.34,0,6.27-2.9,6.27-7.24v-3.1c0-4.7-1.93-7.6-6.15-11.58l-8.07-8.07c-7.84-7.72-11.46-12.42-11.46-21.83v-2.77c0-10.13,5.91-18,19.29-18,13.75,0,19.17,6.75,19.17,18.56v6.64H430.73v-7.12c0-4.7-2.17-7-6.51-7-3.85,0-6.51,2.17-6.51,6.75v1.69c0,4.58,2.53,7.23,6.51,11.09L433,122c7.48,7.6,11.1,12.18,11.1,21.22v4c0,11.21-6,19.17-20,19.17S404.69,158.55,404.69,147.82Z"/><path id="_Compound_Path_4" data-name=" Compound Path 4" class="cls-2" d="M451,83.68h20.37c13.86,0,18.93,6.87,18.93,18.33v17.24c0,11.45-5.07,18.44-18.93,18.44h-6.63v27.73H451ZM464.74,94.9v32.18h5.06c4.7,0,6.75-2.29,6.75-6.75v-18.8c0-4.46-2.05-6.63-6.75-6.63Z"/><path id="_Compound_Path_5" data-name=" Compound Path 5" class="cls-2" d="M497.28,144.32V104.78c0-12.78,6.27-22.06,20.73-22.06s20.86,9.28,20.86,22.06v39.54c0,12.66-6.27,22.07-20.86,22.07S497.28,157,497.28,144.32Zm27.85,2.17V102.61c0-4.94-2.17-8.44-7.12-8.44s-7,3.5-7,8.44v43.88c0,4.95,2.17,8.44,7,8.44s7.12-3.49,7.12-8.44Z"/><path id="_Compound_Path_6" data-name=" Compound Path 6" class="cls-2" d="M558.16,114v51.36H546.59V83.68h13.5l14.83,46.9V83.68h11.45v81.74H574.31Z"/><path id="_Compound_Path_7" data-name=" Compound Path 7" class="cls-2" d="M593.48,147.82v-11h12.78V148c0,4.58,2,7.24,6.75,7.24,4.34,0,6.27-2.9,6.27-7.24v-3.1c0-4.7-1.93-7.6-6.15-11.58l-8.08-8.07c-7.83-7.72-11.45-12.42-11.45-21.83v-2.77c0-10.13,5.91-18,19.29-18,13.74,0,19.17,6.75,19.17,18.56v6.64H619.52v-7.12c0-4.7-2.17-7-6.51-7-3.86,0-6.51,2.17-6.51,6.75v1.69c0,4.58,2.53,7.23,6.51,11.09l8.8,8.68c7.48,7.6,11.09,12.18,11.09,21.22v4c0,11.21-6,19.17-20,19.17S593.48,158.55,593.48,147.82Z"/><path id="_Compound_Path_8" data-name=" Compound Path 8" class="cls-2" d="M639.77,83.68h13.75v81.74H639.77Z"/><path id="_Compound_Path_9" data-name=" Compound Path 9" class="cls-2" d="M661.35,83.68h19.9c13.74,0,18.32,6.39,18.32,18V110c0,6.87-2.53,11.21-8.2,13,6.87,1.56,10.25,6.14,10.25,13.62v10.85c0,11.57-5.18,18-18.93,18H661.35Zm13.75,34.48h4.82c4.46,0,6.51-2.29,6.51-6.63v-10c0-4.46-2-6.63-6.63-6.63h-4.7Zm0,10.49v25.56h6c4.59,0,6.76-2.29,6.76-6.63v-12.3c0-4.34-2-6.63-6.88-6.63Z"/><path id="_Compound_Path_10" data-name=" Compound Path 10" class="cls-2" d="M708.37,83.68h13.74v70.53h16.4v11.21H708.37Z"/><path id="_Compound_Path_11" data-name=" Compound Path 11" class="cls-2" d="M744.66,83.68h32.79V94.9H758.4v23.38H772v11.1H758.4v24.83h19.05v11.21H744.66Z"/></g><g id="_Group_2" data-name=" Group 2"><path id="_Compound_Path_12" data-name=" Compound Path 12" class="cls-2" d="M319.1,264.34V224.8c0-12.78,6-22.06,20.49-22.06,15.19,0,19.41,8.44,19.41,20.49v9.65H346.47V222.15c0-5.07-1.69-8-6.64-8s-7,3.5-7,8.44v43.88c0,4.94,2.05,8.44,7,8.44s6.64-3.13,6.64-8v-15H359V266c0,11.69-4.82,20.37-19.41,20.37S319.1,277,319.1,264.34Z"/><path id="_Compound_Path_13" data-name=" Compound Path 13" class="cls-2" d="M367.68,264.34V224.8c0-12.78,6.27-22.06,20.74-22.06s20.86,9.28,20.86,22.06v39.54c0,12.66-6.27,22.06-20.86,22.06S367.68,277,367.68,264.34Zm27.85,2.17V222.63c0-4.94-2.17-8.44-7.11-8.44s-7,3.5-7,8.44v43.88c0,4.94,2.17,8.44,7,8.44S395.53,271.45,395.53,266.51Z"/><path id="_Compound_Path_14" data-name=" Compound Path 14" class="cls-2" d="M429.89,234.08v51.36H418.31V203.7h13.51l14.83,46.9V203.7H458.1v81.74H446Z"/><path id="_Compound_Path_15" data-name=" Compound Path 15" class="cls-2" d="M466.42,267.84v-11H479.2v11.21c0,4.58,2,7.23,6.75,7.23,4.34,0,6.27-2.89,6.27-7.23v-3.14c0-4.7-1.93-7.59-6.15-11.57L478,245.29c-7.84-7.71-11.45-12.41-11.45-21.82V220.7c0-10.13,5.9-18,19.29-18,13.74,0,19.17,6.75,19.17,18.56v6.63H492.46v-7.11c0-4.7-2.17-7-6.51-7-3.86,0-6.51,2.17-6.51,6.75v1.69c0,4.58,2.53,7.23,6.51,11.09l8.8,8.68c7.47,7.59,11.09,12.17,11.09,21.22v4c0,11.21-6,19.16-20,19.16S466.42,278.57,466.42,267.84Z"/><path id="_Compound_Path_16" data-name=" Compound Path 16" class="cls-2" d="M554.18,203.7v61.85c0,12.66-5.42,20.85-19.41,20.85-14.47,0-20.49-8.19-20.49-20.85V203.7H528v63.17c0,4.83,1.93,8.08,6.75,8.08s6.75-3.25,6.75-8.08V203.7Z"/><path id="_Compound_Path_17" data-name=" Compound Path 17" class="cls-2" d="M601.08,232.39h-.36l-9.29,53.05H585l-10.2-53.05h-.25v53.05H563.22V203.7h16l8.92,46.05h.12l8-46.05h17.37v81.74H601.08Z"/><path id="_Compound_Path_18" data-name=" Compound Path 18" class="cls-2" d="M622.66,203.7H643c13.86,0,18.93,6.87,18.93,18.33v17.24c0,11.45-5.07,18.44-18.93,18.44h-6.6v27.73H622.66Zm13.74,11.21V247.1h5.06c4.71,0,6.75-2.29,6.75-6.75V221.54c0-4.46-2-6.63-6.75-6.63Z"/><path id="_Compound_Path_19" data-name=" Compound Path 19" class="cls-2" d="M666.42,203.7H703v11.21H691.61v70.53H677.75V214.91H666.42Z"/><path id="_Compound_Path_20" data-name=" Compound Path 20" class="cls-2" d="M709.46,203.7H723.2v81.74H709.46Z"/><path id="_Compound_Path_21" data-name=" Compound Path 21" class="cls-2" d="M731.15,264.34V224.8c0-12.78,6.27-22.06,20.74-22.06s20.86,9.28,20.86,22.06v39.54c0,12.66-6.27,22.06-20.86,22.06S731.15,277,731.15,264.34ZM759,266.51V222.63c0-4.94-2.17-8.44-7.11-8.44s-7,3.5-7,8.44v43.88c0,4.94,2.17,8.44,7,8.44S759,271.45,759,266.51Z"/><path id="_Compound_Path_22" data-name=" Compound Path 22" class="cls-2" d="M792.28,234.08v51.36H780.7V203.7h13.5L809,250.6V203.7h11.46v81.74h-12Z"/></g><g id="_Group_3" data-name=" Group 3"><path id="_Compound_Path_23" data-name=" Compound Path 23" class="cls-2" d="M316.93,405.47l15.43-81.74H348l15.56,81.74H349.48l-2.48-15H332.36l-2.36,15Zm17.24-25.92h11l-5.43-32.8h-.12Z"/><path id="_Compound_Path_24" data-name=" Compound Path 24" class="cls-2" d="M381.18,354.11v51.36H369.61V323.73h13.5l14.83,46.89V323.73H409.4v81.74H397.34Z"/><path id="_Compound_Path_25" data-name=" Compound Path 25" class="cls-2" d="M458.7,345.67v37.85c0,12.54-5.18,22-19.89,22H417.59V323.73h21.22C453.52,323.73,458.7,333,458.7,345.67Zm-21.58,48.58c5.67,0,7.84-3.37,7.84-8.32V343.14c0-4.83-2.17-8.2-7.84-8.2h-5.79v59.31Z"/><path id="_Compound_Path_26" data-name=" Compound Path 26" class="cls-2" d="M479.92,323.73h20.37c13.87,0,18.93,6.87,18.93,18.32v17.24c0,11.45-5.06,18.45-18.93,18.45h-6.63v27.73H479.92Zm13.74,11.21v32.19h5.06c4.71,0,6.76-2.29,6.76-6.75V341.57c0-4.46-2.05-6.63-6.76-6.63Z"/><path id="_Compound_Path_27" data-name=" Compound Path 27" class="cls-2" d="M540.44,368v37.5H526.69V323.73h20c13.86,0,18.92,6.87,18.92,18.32v10.49c0,8.8-3.13,14-11,15.79l13.14,37.14H553.34Zm0-33v25.44H545c4.7,0,6.75-2.41,6.75-6.76v-12c0-4.46-2-6.63-6.75-6.63Z"/><path id="_Compound_Path_28" data-name=" Compound Path 28" class="cls-2" d="M573.47,384.37V344.82c0-12.78,6.27-22.06,20.73-22.06s20.86,9.28,20.86,22.06v39.55c0,12.66-6.27,22.06-20.86,22.06S573.47,397,573.47,384.37Zm27.85,2.17V342.65c0-4.94-2.17-8.44-7.12-8.44s-7,3.5-7,8.44v43.89c0,4.94,2.17,8.44,7,8.44s7.12-3.5,7.12-8.44Z"/><path id="_Compound_Path_29" data-name=" Compound Path 29" class="cls-2" d="M664.37,345.67v37.85c0,12.54-5.19,22-19.89,22H623.26V323.73h21.22C659.18,323.73,664.37,333,664.37,345.67Zm-21.58,48.58c5.67,0,7.83-3.37,7.83-8.32V343.14c0-4.83-2.16-8.2-7.83-8.2H637v59.31Z"/><path id="_Compound_Path_30" data-name=" Compound Path 30" class="cls-2" d="M712.47,323.73v61.84c0,12.66-5.43,20.86-19.41,20.86-14.47,0-20.5-8.2-20.5-20.86V323.73h13.75V386.9c0,4.82,1.93,8.08,6.75,8.08s6.75-3.26,6.75-8.08V323.73Z"/><path id="_Compound_Path_31" data-name=" Compound Path 31" class="cls-2" d="M720.67,384.37V344.82c0-12.78,6-22.06,20.49-22.06,15.19,0,19.41,8.44,19.41,20.5v9.64H748V342.17c0-5.06-1.68-8-6.63-8s-7,3.5-7,8.44V386.5c0,4.94,2,8.44,7,8.44s6.63-3.14,6.63-8V372h12.54V386c0,11.69-4.82,20.37-19.41,20.37S720.67,397,720.67,384.37Z"/><path id="_Compound_Path_32" data-name=" Compound Path 32" class="cls-2" d="M766.84,323.73h36.53v11.21H792v70.53H778.17V334.94H766.84Z"/><path id="_Compound_Path_33" data-name=" Compound Path 33" class="cls-2" d="M809.88,323.73h13.74v81.74H809.88Z"/><path id="_Compound_Path_34" data-name=" Compound Path 34" class="cls-2" d="M831.58,384.37V344.82c0-12.78,6.26-22.06,20.73-22.06s20.86,9.28,20.86,22.06v39.55c0,12.66-6.27,22.06-20.86,22.06S831.58,397,831.58,384.37Zm27.84,2.17V342.65c0-4.94-2.17-8.44-7.11-8.44s-7,3.5-7,8.44v43.89c0,4.94,2.17,8.44,7,8.44s7.11-3.5,7.11-8.44Z"/><path id="_Compound_Path_35" data-name=" Compound Path 35" class="cls-2" d="M892.7,354.11v51.36H881.12V323.73h13.51l14.83,46.89V323.73h11.45v81.74H908.85Z"/></g></g></g></svg>