<svg xmlns="http://www.w3.org/2000/svg" viewBox="0 0 62 56"><defs><style>.cls-1{fill:#fc6;}.cls-2{fill:none;stroke:#2e4369;stroke-linecap:round;stroke-linejoin:round;stroke-width:2px;}</style></defs><title>ToPay</title><g id="Layer_2" data-name="Layer 2"><g id="Layer_1-2" data-name="Layer 1"><circle class="cls-1" cx="48" cy="33" r="1"/><path class="cls-2" d="M50.7,11,47,1,19.5,11M57,39V52a3,3,0,0,1-3,3H4a3,3,0,0,1-3-3V14a3,3,0,0,1,3-3H54a3,3,0,0,1,3,3V27"/><rect class="cls-2" x="41" y="27" width="20" height="12" rx="2"/><path class="cls-2" d="M11,17h2m8,0h2m8,0h2m8,0h2M15,49h2m8,0h2m8,0h2m8,0h2"/><circle class="cls-2" cx="48" cy="33" r="1"/></g></g></svg>