<svg xmlns="http://www.w3.org/2000/svg" viewBox="0 0 17.75 17.76"><defs><style>.cls-1{fill:#f04848;}</style></defs><title>Asset 21</title><g id="Layer_2" data-name="Layer 2"><g id="Layer_1-2" data-name="Layer 1"><path class="cls-1" d="M17.75,12.49,17.7,5.3,0,5.42V7.24L0,8.51v4.1a7.51,7.51,0,0,0,.07.84,4,4,0,0,0,.09.4,5.08,5.08,0,0,0,.18.59,5.2,5.2,0,0,0,4.88,3.32l7.34-.05A5.17,5.17,0,0,0,17.75,12.49Zm-5.39-1.26L9.74,12.77,7.1,14.32a.53.53,0,0,1-.81-.46l0-3.06,0-3.05a.54.54,0,0,1,.81-.48L9.71,8.78l2.65,1.51A.54.54,0,0,1,12.36,11.23ZM3,.55a5.2,5.2,0,0,0-2.9,3.9L6,4.41ZM12.48,0,9.65,0,13,4.36l4.59,0A5.2,5.2,0,0,0,12.48,0ZM8.42,0,5.14.05A5.36,5.36,0,0,0,3.92.21L7.18,4.4l4.63,0Z"/></g></g></svg>