<svg xmlns="http://www.w3.org/2000/svg" viewBox="0 0 20.84 18.13"><defs><style>.cls-1{fill:#c4c4c4;}</style></defs><title>Asset 16</title><g id="Layer_2" data-name="Layer 2"><g id="Layer_1-2" data-name="Layer 1"><path class="cls-1" d="M18.78,3.88H3.26a.65.65,0,1,1,0-1.29H18.89a.65.65,0,0,0,.65-.65A1.94,1.94,0,0,0,17.59,0h-15A2.6,2.6,0,0,0,0,2.59v13a2.59,2.59,0,0,0,2.61,2.58H18.78a2,2,0,0,0,2.06-1.94V5.83A2,2,0,0,0,18.78,3.88ZM16.94,12.3a1.3,1.3,0,1,1,1.3-1.3A1.31,1.31,0,0,1,16.94,12.3Z"/></g></g></svg>