<svg xmlns="http://www.w3.org/2000/svg" viewBox="0 0 136 136"><defs><style>.cls-1{fill:#e0e0e0;}.cls-2{fill:#f0494c;}.cls-3{opacity:0.18;}.cls-14,.cls-19,.cls-24,.cls-3,.cls-6{isolation:isolate;}.cls-4{fill:#101129;}.cls-5{fill:#8aaf3f;}.cls-6{opacity:0.4;}.cls-7{fill:#fff;}.cls-8{fill:#2f446a;}.cls-9{fill:#d5e2f4;}.cls-10{fill:#8fa9d8;}.cls-11{fill:#fff4e8;}.cls-12{fill:#f04848;}.cls-13{fill:#f8971d;}.cls-14{opacity:0.25;}.cls-15{fill:#aab437;}.cls-16{fill:#d4dc9a;}.cls-17{fill:#fc9;}.cls-18,.cls-24{fill:#000064;}.cls-19{opacity:0.15;}.cls-20{fill:#2e4369;}.cls-21{fill:#ef5940;}.cls-22{fill:#bb806c;}.cls-23{fill:#e8ddc9;}.cls-24{opacity:0.2;}.cls-25{fill:none;stroke:#2e4369;stroke-linecap:round;stroke-linejoin:round;stroke-width:2px;}.cls-26{fill:#bacae9;}</style></defs><title>cookknow app design</title><g id="text"><path class="cls-1" d="M54.15,38.32C48.49,48,30.21,51,23.85,56c-5.82,4.56-8.92,15.1-8.61,23.5s6.7,16.76,15.08,17.46c3.64.31,7.29-.77,10.94-.52,11.68.8,18.19,13.9,28.46,19.52,11.84,6.48,26.93,1.9,37.89-6,7-5,13.23-11.66,15.45-20s-.66-18.33-8.21-22.41C108,63.91,97.68,64.45,95,57.19c-1.86-5.08,1.76-10.39,2.57-15.73,1.27-8.38-5.1-16.71-13.17-19.27s-15.48-3-21.43,3C60.23,28,56.14,34.9,54.15,38.32Z"/><path class="cls-2" d="M33.66,56.24l1-.26s0,.59-1.26,1.9a12.82,12.82,0,0,1,1.9,1.26,7.18,7.18,0,0,1-3.16.63c-.5,1.4-2.6,2.66-2.6,2.66a10.32,10.32,0,0,1,.32-2.53A5.74,5.74,0,0,1,27.6,60a9,9,0,0,1,.72-.79c-1.46.92-3.56,3-1,7.43s7.37,3.13,9.43,1.07c2.82-.7,6.38-4.24,3.85-8.67S35.2,55.45,33.66,56.24Z"/><g class="cls-3"><path class="cls-4" d="M36.75,66.26c-2,2.07-6.9,3.35-9.43-1.07a8.38,8.38,0,0,1-1.14-3.08,6.61,6.61,0,0,0,1.11,4.56c2.53,4.43,7.37,3.13,9.43,1.07,2.3-.58,5.08-3,4.67-6.31A6.46,6.46,0,0,1,36.75,66.26Z"/></g><path class="cls-5" d="M34.68,56l-1,.26a6.25,6.25,0,0,0-1.89.81,8.52,8.52,0,0,0-1.64-.82A7.25,7.25,0,0,0,30,58.07a5.41,5.41,0,0,0-1.68,1.17,9,9,0,0,0-.72.79,5.74,5.74,0,0,0,2.28-.13,10.32,10.32,0,0,0-.32,2.53s2.1-1.26,2.6-2.66a7.18,7.18,0,0,0,3.16-.63,12.82,12.82,0,0,0-1.9-1.26C34.67,56.57,34.68,56,34.68,56Z"/><g class="cls-3"><path class="cls-4" d="M29.56,62.43a10.32,10.32,0,0,1,.32-2.53,3.6,3.6,0,0,1-1.3.19l-.64.54c-.25.25-.49.51-.72.79a5.74,5.74,0,0,0,2.28-.13,9.85,9.85,0,0,0-.31,2.53s2.1-1.26,2.59-2.65a7.16,7.16,0,0,0,3.16-.64s-.65-.51-1.24-.88a5.72,5.72,0,0,1-1.54.12C31.66,61.17,29.56,62.43,29.56,62.43Z"/></g><g class="cls-6"><ellipse class="cls-7" cx="36.64" cy="57.98" rx="0.89" ry="1.28" transform="matrix(0.26, -0.96, 0.96, 0.26, -28.93, 78.11)"/></g><path class="cls-8" d="M35.45,59.36h0a7.46,7.46,0,0,1-3.09.66,7.45,7.45,0,0,1-2.63,2.62.24.24,0,0,1-.26,0,.25.25,0,0,1-.13-.22,10.49,10.49,0,0,1,.22-2.16,7.06,7.06,0,0,1-2,0,.26.26,0,0,1-.17-.41,7.42,7.42,0,0,1,2.33-2,8.32,8.32,0,0,1,.15-1.72A.26.26,0,0,1,30,56a.28.28,0,0,1,.22,0,10,10,0,0,1,1.55.75,10.89,10.89,0,0,1,2.86-1,.25.25,0,0,1,.22.05.25.25,0,0,1,.09.2c0,.11-.07.68-1.1,1.82a16.16,16.16,0,0,1,1.63,1.14.23.23,0,0,1,.1.23A.25.25,0,0,1,35.45,59.36Zm-7.34.46a4.25,4.25,0,0,0,1.67-.15.27.27,0,0,1,.27,0,.26.26,0,0,1,.08.25,9.67,9.67,0,0,0-.3,2,5.82,5.82,0,0,0,2.09-2.26.25.25,0,0,1,.24-.17,7,7,0,0,0,2.65-.45,9.16,9.16,0,0,0-1.47-1,.25.25,0,0,1-.17-.19.25.25,0,0,1,.07-.23,6.27,6.27,0,0,0,1-1.37,7.35,7.35,0,0,0-2.35.92.26.26,0,0,1-.33,0,6.62,6.62,0,0,0-1.28-.66A5.55,5.55,0,0,0,30.25,58a.26.26,0,0,1-.15.29A5.93,5.93,0,0,0,28.11,59.82Z"/><path class="cls-8" d="M38.37,67.33a6.27,6.27,0,0,1-1.52.64,7,7,0,0,1-5.53,1.87,5.7,5.7,0,0,1-4.25-3c-2.46-4.29-.75-6.6,1.12-7.78a.26.26,0,0,1,.35.08.26.26,0,0,1-.08.35C26,61,25.7,63.38,27.51,66.55a5.24,5.24,0,0,0,3.87,2.79,6.51,6.51,0,0,0,5.16-1.78.41.41,0,0,1,.11-.07A6.38,6.38,0,0,0,40.79,64a5.25,5.25,0,0,0-.44-4.79c-1.8-3.14-4-4.06-6.57-2.73a.26.26,0,0,1-.24-.46c2.82-1.45,5.32-.43,7.25,2.94a5.7,5.7,0,0,1,.47,5.24A6.82,6.82,0,0,1,38.37,67.33Z"/><path class="cls-9" d="M98.53,22.11a5.68,5.68,0,0,0,5.15,6.07,12.21,12.21,0,0,0,1.76-7.27A11.7,11.7,0,0,0,98.53,22.11Z"/><path class="cls-10" d="M103.65,28.18a8.9,8.9,0,0,1-2.26,6,5.5,5.5,0,0,0-2.23-2.29m-1.8-9.09a9.91,9.91,0,0,0-6.29,2.74s3.09.28,3.18,1.38"/><ellipse class="cls-10" cx="102.27" cy="23.87" rx="0.63" ry="0.66"/><path class="cls-10" d="M90.57,39.69c.38-1.42.69-3.18,1.1-5.13a39.76,39.76,0,0,1-5.09,1S90.07,36.7,90.57,39.69Zm8-17.58a8.66,8.66,0,0,0-2.83,2.45c-2.24,3-3.27,6.7-4,10a38.8,38.8,0,0,0,7.46-2.67,11.25,11.25,0,0,0,4.49-3.71A5.67,5.67,0,0,1,98.53,22.11Z"/><g class="cls-3"><path class="cls-4" d="M103.65,28.18a12.25,12.25,0,0,0,1.79-7.27s-.25,3-3.71,6.7A7.19,7.19,0,0,0,103.65,28.18ZM90.57,39.69c.38-1.42.69-3.18,1.1-5.13l-2.54,2.55A4.54,4.54,0,0,1,90.57,39.69Z"/></g><g class="cls-3"><path class="cls-4" d="M103.65,28.18a7.19,7.19,0,0,1-1.92-.57,32,32,0,0,1-10.06,7,39.07,39.07,0,0,0,7.49-2.67,5.27,5.27,0,0,1,2.26,2.29A8.78,8.78,0,0,0,103.65,28.18Z"/></g><path class="cls-8" d="M101.39,34.47h-.06a.33.33,0,0,1-.23-.18,4.72,4.72,0,0,0-2-2.1c-.09,0-.32-.18-.23-.43a.33.33,0,0,1,.37-.2.28.28,0,0,1,.15.08h0a5.58,5.58,0,0,1,2.08,2,8.9,8.9,0,0,0,1.87-5.41.32.32,0,0,1,.29-.34.32.32,0,0,1,.34.3,9.29,9.29,0,0,1-2.36,6.22A.31.31,0,0,1,101.39,34.47ZM94.25,27.2a.31.31,0,0,1-.31-.28c0-.58-1.76-1-2.89-1.1a.31.31,0,0,1-.27-.21.33.33,0,0,1,.07-.33,10.17,10.17,0,0,1,6.51-2.82.31.31,0,1,1,0,.62,9.28,9.28,0,0,0-5.56,2.2c1,.17,2.68.59,2.76,1.58a.31.31,0,0,1-.28.34Z"/><path class="cls-8" d="M102.27,24.84a1,1,0,1,1,.94-1A1,1,0,0,1,102.27,24.84Zm0-1.32a.35.35,0,1,0,.31.35A.34.34,0,0,0,102.27,23.52Z"/><path class="cls-8" d="M90.57,40h0a.33.33,0,0,1-.3-.26c-.46-2.77-3.75-3.9-3.78-3.91a.3.3,0,0,1-.21-.33.31.31,0,0,1,.27-.28,38.8,38.8,0,0,0,4.9-.92c.72-3.25,1.77-6.93,4-9.93a9,9,0,0,1,2.93-2.54.32.32,0,0,1,.3.56A8.27,8.27,0,0,0,96,24.75a24.6,24.6,0,0,0-3.83,9.38A38.54,38.54,0,0,0,99,31.6a11,11,0,0,0,4.37-3.6.32.32,0,0,1,.44-.08.31.31,0,0,1,.08.43,11.47,11.47,0,0,1-4.62,3.82,39.11,39.11,0,0,1-7.35,2.66c-.11.51-.21,1-.3,1.48-.26,1.26-.5,2.45-.76,3.46A.33.33,0,0,1,90.57,40Zm-2.86-4.3a6.32,6.32,0,0,1,2.83,2.8c.16-.72.32-1.5.48-2.31q.12-.59.24-1.2C90.09,35.28,88.9,35.52,87.71,35.7Z"/><path class="cls-8" d="M103.68,28.49h-.05a6,6,0,0,1-5.42-6.38.33.33,0,0,1,.16-.28,12,12,0,0,1,7.13-1.23.32.32,0,0,1,.26.31c0,2.43-.14,5-1.82,7.45A.32.32,0,0,1,103.68,28.49ZM98.84,22.3a5.32,5.32,0,0,0,4.69,5.53,11.61,11.61,0,0,0,1.6-6.64A11.48,11.48,0,0,0,98.84,22.3Z"/><path class="cls-11" d="M84.68,72.19C77.44,67.68,76.3,63,79.43,57.44l-1.87,3c-3.68,5.9-2.31,10,5.25,14.75s16.41,4,19.06-.29l2.81-4.52C102,74.64,92.25,76.9,84.68,72.19Z"/><g class="cls-3"><path class="cls-4" d="M78.78,66.69c-1.56-2.85-1.25-5.84.67-9.19l0,0-1.87,3C74.09,66,75.05,70,81.45,74.35,78.93,71.89,78.09,69.49,78.78,66.69Z"/></g><path class="cls-12" d="M105.53,60.12c-4.24-2.65-6.44.16-13.16-4-3.2-2-2.57-2.65-4.25-3.69s-4.89-1.07-8.22,4.27l-.47.76c-3.13,5.56-2,10.24,5.25,14.75s17.35,2.45,20-1.8C105.17,69.6,109.77,62.76,105.53,60.12Z"/><path class="cls-11" d="M99.51,64.25a1,1,0,0,0-.86-1h0L91.16,62,88.22,56.8a1,1,0,0,0-1.29-.33.86.86,0,0,0-.37,1l1.56,5.25L85.27,66a.88.88,0,0,0-.06,1.26l.24.15a.93.93,0,0,0,1.09,0l4.27-2.67,7.75.3A.88.88,0,0,0,99.51,64.25Z"/><path class="cls-8" d="M84.45,72.56c-7.47-4.65-9-9.62-5-16.13S87,51.21,88.35,52a5.1,5.1,0,0,1,1.48,1.35,9.09,9.09,0,0,0,2.78,2.34,14.85,14.85,0,0,0,7.93,2.56,10,10,0,0,1,5.22,1.46,4.1,4.1,0,0,1,1.86,2.47c.53,2.06-.32,4.94-2.46,8.31l-.08.12c-1.39,2.23-4.63,3.93-8.47,4.46A18.35,18.35,0,0,1,84.45,72.56Zm3.43-19.78c-2.28-1.42-5,.09-7.58,4.15C76.53,63,77.91,67.45,84.92,71.81c7.53,4.69,16.94,2.22,19.36-1.67l.08-.12c2-3.13,2.82-5.84,2.36-7.63a3.08,3.08,0,0,0-1.43-1.9,9.08,9.08,0,0,0-4.77-1.31,15.67,15.67,0,0,1-8.38-2.71,10.2,10.2,0,0,1-3-2.56A4.28,4.28,0,0,0,87.88,52.78Z"/><path class="cls-8" d="M82.58,75.57c-7.78-4.84-9.3-9.15-5.42-15.37l1.87-3a.47.47,0,0,1,.8.5l-1.87,3c-3.59,5.76-2.21,9.59,5.08,14.13,7.56,4.71,16,3.8,18.43-.16l2.81-4.52a.46.46,0,0,1,.63-.12.44.44,0,0,1,.17.62l-2.81,4.51C99.58,79.47,90.59,80.56,82.58,75.57Z"/><path class="cls-8" d="M85,67.58a.48.48,0,0,1-.11-.09A1.31,1.31,0,0,1,85,65.62l2.65-3-1.49-5a1.27,1.27,0,0,1,.55-1.51,1.47,1.47,0,0,1,1.93.49l2.84,5,7.26,1.22A1.46,1.46,0,0,1,100,64.31v0a1.31,1.31,0,0,1-1.39,1L91,65.09l-4.13,2.58a1.4,1.4,0,0,1-1.61.06Zm.54-.7.17.1a.45.45,0,0,0,.54,0l0,0,4.27-2.67a.48.48,0,0,1,.26-.06l7.76.29a.44.44,0,0,0,.47-.32.49.49,0,0,0-.43-.47L91.1,62.41a.5.5,0,0,1-.35-.24L87.81,57a.48.48,0,0,0-.62-.14.43.43,0,0,0-.19.51l1.57,5.27a.44.44,0,0,1-.09.41l-2.82,3.2,0,0A.44.44,0,0,0,85.54,66.88Z"/><path class="cls-13" d="M70.66,45.18c-1.72-1.72-3.85-2.35-5.31-.89-3.78,3.81-9.69,14.11-8.84,15S68,54,71.55,50.46C73,49,72.37,46.86,70.66,45.18Z"/><g class="cls-3"><path class="cls-4" d="M71.86,48.87c-3.52,3.56-14.14,9.72-15,8.83l-.06-.09c-.35.89-.45,1.49-.26,1.68.89.89,11.48-5.31,15-8.83a2.69,2.69,0,0,0,.8-2.23A2.84,2.84,0,0,1,71.86,48.87Z"/></g><g class="cls-14"><path class="cls-7" d="M60,53.79l-.16.29C58.45,56.72,70.08,45.88,69,45a3.14,3.14,0,0,0-1.56-.51,1.67,1.67,0,0,0-1.24.54A46.44,46.44,0,0,0,60,53.79Z"/></g><path class="cls-8" d="M56.81,59.7a.7.7,0,0,1-.52-.18c-.71-.71,1-4.08,2.6-6.79.65-1.12,1.43-2.38,2.27-3.63a.1.1,0,0,1,0-.05,35.13,35.13,0,0,1,3.89-5c1.42-1.42,3.56-1.16,5.51.64a2.93,2.93,0,0,0,.28-2.12A4.46,4.46,0,0,0,70,40.54a.32.32,0,0,1,.45-.45,5.07,5.07,0,0,1,1.1,2.38,4.62,4.62,0,0,1,.07,1.32l1.5-1.5a.31.31,0,0,1,.45,0,.33.33,0,0,1,0,.45L72,44.23a4.56,4.56,0,0,1,1.31.07,5,5,0,0,1,2.38,1.1.31.31,0,0,1,0,.45.33.33,0,0,1-.45,0,4.36,4.36,0,0,0-2.05-.92,3,3,0,0,0-2.12.27,5.12,5.12,0,0,1,1.56,3.32,3,3,0,0,1-.91,2.16c-3.25,3.28-12.74,9-14.92,9Zm-.07-.64c.63.17,3.8-1.37,7.16-3.41L62,53.8a.33.33,0,0,1,0-.45.32.32,0,0,1,.45,0l2,2c1.27-.78,2.54-1.63,3.69-2.47l-1.71-1.71a.32.32,0,0,1,.45-.45l1.78,1.78a23.73,23.73,0,0,0,2.63-2.23,2.33,2.33,0,0,0,.72-1.7,4.68,4.68,0,0,0-1.61-3.12h0c-1.33-1.33-3.39-2.36-4.86-.89-.33.33-.67.71-1,1.13L66.88,48a.32.32,0,1,1-.45.45l-2.32-2.35c-.74.91-1.51,2-2.25,3.07l1.49,1.46a.33.33,0,0,1,0,.45.32.32,0,0,1-.45,0l-1.4-1.38C58.82,53.79,56.51,58.3,56.74,59.06Z"/><path class="cls-15" d="M40.45,20.29a2.67,2.67,0,0,0-5.21-.83,5,5,0,0,0-8.92,4.08A2.29,2.29,0,0,0,24.27,26a2.23,2.23,0,0,0,.26.84l-.34.18a3.43,3.43,0,1,0,3.26,6l.44-.24a2.28,2.28,0,0,0,3.23-.07,2.37,2.37,0,0,0,.58-1.12l-1.39-2.1a4.9,4.9,0,0,0,3.9-3.67,5,5,0,0,0,3.1.84l.53,1.71A2.67,2.67,0,0,0,42,26.07l.2-.11a3,3,0,0,0-1.76-5.67Z"/><g class="cls-3"><path class="cls-4" d="M42.06,24.79l-.24.12a2.66,2.66,0,0,1-4.17,2.38l-.53-1.7A5,5,0,0,1,34,24.75a4.92,4.92,0,0,1-3.93,3.63,3.93,3.93,0,0,1-2.82-.25c1.32,1.49,1.34,2.73.41,3.5l-.47.25a3.39,3.39,0,0,1-4.61-1.33,3.51,3.51,0,0,1-.22-.48,3.43,3.43,0,0,0,5.06,3l.44-.24a2.28,2.28,0,0,0,3.23-.07,2.37,2.37,0,0,0,.58-1.12L31.27,31l-1-1.47.52-.15a4.93,4.93,0,0,0,3.4-3.57,5,5,0,0,0,3.1.84l.53,1.71A2.67,2.67,0,0,0,42,26l.23-.13a3,3,0,0,0,1.38-3.78A3.07,3.07,0,0,1,42.06,24.79Z"/></g><path class="cls-16" d="M34.21,25.9a4.9,4.9,0,0,1-3.9,3.67l1.37,2.07,3,4.47,4.7-2.53-1.56-5.13-.53-1.71A5,5,0,0,1,34.21,25.9Z"/><g class="cls-3"><path class="cls-4" d="M37.31,26.74a5,5,0,0,1-3.1-.84,4.9,4.9,0,0,1-3.9,3.67l1.37,2.07,3,4.47,1.14-.61-3.12-5.07A6.19,6.19,0,0,0,35,27.72a3.62,3.62,0,0,0,2.82.73Z"/></g><path class="cls-8" d="M39.61,34l-4.69,2.54a.38.38,0,0,1-.5-.13L30,29.81a.37.37,0,0,1,.1-.52.38.38,0,0,1,.53.1l4.22,6.29,1.37-.74-2.71-5a.38.38,0,0,1,.16-.52.37.37,0,0,1,.51.16l2.72,5L39,33.46l-2-6.57a.38.38,0,0,1,.26-.48.38.38,0,0,1,.47.25l2.11,6.88A.38.38,0,0,1,39.61,34Z"/><path class="cls-8" d="M39.54,26.54h0a5.32,5.32,0,0,1-5.08,0A5.38,5.38,0,0,1,28.54,30a.38.38,0,0,1-.31-.44.37.37,0,0,1,.44-.31,4.59,4.59,0,0,0,5.19-3.41.39.39,0,0,1,.59-.22,4.57,4.57,0,0,0,4.73.25.38.38,0,0,1,.51.15A.39.39,0,0,1,39.54,26.54Z"/><path class="cls-8" d="M40.8,29a2.65,2.65,0,0,1-.92.32,3,3,0,0,1-2.27-.5.38.38,0,0,1-.1-.53.38.38,0,0,1,.53-.09,2.31,2.31,0,0,0,3.19-.57,2.3,2.3,0,0,0,.4-1.44.38.38,0,0,1,.2-.36l.24-.13a2.67,2.67,0,0,0-1.56-5,.41.41,0,0,1-.3-.1.36.36,0,0,1-.12-.28,2.28,2.28,0,0,0-.66-1.62A2.23,2.23,0,0,0,37.82,18a2.28,2.28,0,0,0-2.2,1.59.37.37,0,0,1-.31.26.38.38,0,0,1-.37-.17,4.57,4.57,0,0,0-8.24,3.76.4.4,0,0,1-.05.32.35.35,0,0,1-.28.17A1.91,1.91,0,0,0,24.67,26a1.94,1.94,0,0,0,.23.73.37.37,0,0,1,0,.29.42.42,0,0,1-.18.23l-.34.18a3,3,0,0,0,2.89,5.36l.44-.23a.36.36,0,0,1,.44.06,1.9,1.9,0,0,0,3.18-1,.38.38,0,0,1,.75.16,2.66,2.66,0,0,1-4.24,1.57l-.2.11a3.81,3.81,0,0,1-3.62-6.7l0,0a2.85,2.85,0,0,1-.16-.67,2.68,2.68,0,0,1,1.95-2.84,5.33,5.33,0,0,1,9.32-4.53,3.05,3.05,0,0,1,5.65,1.18,3.43,3.43,0,0,1,1.6,6.44l0,0a3.17,3.17,0,0,1-.55,1.68A3,3,0,0,1,40.8,29Z"/><path class="cls-17" d="M42.29,91.3l5.62-6.67L32.68,76.56l-5.83,6.6L21,76.56,5.8,84.63l5.61,6.81L5.8,98.24l6,3.58h-.35v8.36l15.44,8.14,15.44-8.14v-8.36H42l5.9-3.58Z"/><g class="cls-14"><path class="cls-7" d="M42.29,91.65,26.85,99.72l6.81,7,14.25-8.28Zm-30.88-.21L5.8,84.63,21,76.56l5.75,6.6Z"/></g><g class="cls-14"><path class="cls-18" d="M26.78,83.51,11.41,91.79l15.44,7.93,15.44-8.07Z"/></g><g class="cls-19"><path class="cls-18" d="M32.68,76.56l-5.9,6.6L42.29,91.3l5.62-6.74ZM11.41,91.44,5.8,98.1l5.61,3.23v8.85l15.44,8.49v-19H26.5l.35-.35Z"/></g><path class="cls-20" d="M26.85,119.37a.8.8,0,0,1-.33-.08l-15.44-8.14a.7.7,0,0,1-.37-.62v-8.64a.7.7,0,1,1,1.4,0v8.21l14.74,7.77,14.74-7.77v-8.21a.7.7,0,0,1,1.4,0v8.64a.7.7,0,0,1-.37.62l-15.44,8.14A.76.76,0,0,1,26.85,119.37Z"/><path class="cls-20" d="M26.85,119.37a.7.7,0,0,1-.7-.7V101.45l-5.53,5.71a.71.71,0,0,1-.85.12L5.45,99.06a.67.67,0,0,1-.34-.48A.71.71,0,0,1,5.26,98l5.24-6.22L5.26,85.43a.7.7,0,0,1,.21-1.07L20.7,76.29a.71.71,0,0,1,.86.16l5.23,6,5.36-6a.7.7,0,0,1,.85-.15l15.23,8a.7.7,0,0,1,.36.48.67.67,0,0,1-.15.59L43.2,91.65,48.45,98a.73.73,0,0,1,.15.57.7.7,0,0,1-.34.48L34,107.34a.69.69,0,0,1-.85-.11l-5.61-5.78v17.22A.7.7,0,0,1,26.85,119.37Zm.51-20.14,6.42,6.62,13.06-7.59-5.09-6.17a.71.71,0,0,1,0-.89l5.06-6.07-14-7.34L27.31,84a.73.73,0,0,1-.53.24h0a.71.71,0,0,1-.53-.24l-5.39-6.18-14,7.41L12,91.34a.7.7,0,0,1,0,.9l-5.07,6L20,105.79l6.36-6.56h0l0,0s0,0,0,0a.74.74,0,0,1,.42-.17H27a.71.71,0,0,1,.37.18Z"/><path class="cls-20" d="M26.85,100.42a.72.72,0,0,1-.32-.08L11.09,92.41a.7.7,0,0,1,0-1.24l15.37-8.28a.7.7,0,0,1,.66,0L42.62,91a.7.7,0,0,1,0,1.24l-15.44,8.07A.8.8,0,0,1,26.85,100.42ZM12.92,91.77l13.93,7.16,13.93-7.28-14-7.35Z"/><path class="cls-21" d="M126.28,89.46V79h-6.44v5.29Z"/><path class="cls-22" d="M104.11,101.91H117v15.73H104.11Z"/><path class="cls-23" d="M110.55,76.88,94.81,89.46v28.18h9.3V101.91H117v15.73h9.3V89.46Z"/><path class="cls-24" d="M110.55,80.45,126.28,93V89.46L110.55,76.88,94.81,89.46v28.18h3.58V90.46Z"/><path class="cls-24" d="M106.25,104.05v2.15h6.44v11.44h2.15V104.05Z"/><path class="cls-25" d="M89.09,94l21.46-17.16L132,94m-27.89,23.6V101.91H117v15.73"/><path class="cls-25" d="M94.81,89.46v28.18h31.47V79h-6.44v5.33"/><path class="cls-26" d="M72,110.53a1.4,1.4,0,0,1-2-2l4.2-4.19H60.46a1.4,1.4,0,1,1,0-2.79H74.19l-4.13-4.14a1.39,1.39,0,1,1,2-2l7.5,7.5Z"/><path class="cls-20" d="M71,111.4a1.83,1.83,0,0,1-1.31-.54,1.86,1.86,0,0,1,0-2.64l3.4-3.4H60.46a1.86,1.86,0,1,1,0-3.72H73.07l-3.34-3.34a1.85,1.85,0,0,1,0-2.63,1.91,1.91,0,0,1,2.63,0l7.5,7.5a.45.45,0,0,1,0,.66l-7.56,7.57A1.85,1.85,0,0,1,71,111.4ZM60.46,102a.93.93,0,1,0,0,1.86H74.19a.47.47,0,0,1,.43.29.48.48,0,0,1-.1.51l-4.2,4.19a.94.94,0,0,0,0,1.32,1,1,0,0,0,1.32,0h0L78.88,103,71.7,95.79a.93.93,0,0,0-1.31,1.32l4.13,4.13a.46.46,0,0,1,.1.5.46.46,0,0,1-.43.29H60.46Z"/></g></svg>