<svg xmlns="http://www.w3.org/2000/svg" viewBox="0 0 136 136"><defs><style>.cls-1{fill:#e0e0e0;}.cls-2{fill:#f26161;}.cls-3{fill:#d34545;}.cls-4{fill:#2e4369;}.cls-5{fill:#faf287;}.cls-6{fill:#f04848;}.cls-7{fill:#f6b36d;}.cls-8{opacity:0.18;}.cls-14,.cls-8{isolation:isolate;}.cls-9{fill:#101129;}.cls-10{fill:#2f446a;}.cls-11{fill:#4c5e7d;}.cls-12{fill:#fff4e8;}.cls-13{fill:#f26950;}.cls-14{opacity:0.25;}.cls-15{fill:#fff;}.cls-16{fill:#f9cb9a;}.cls-17{fill:#70bf44;}.cls-18{fill:#e2a875;}.cls-19{fill:#fad8b6;}.cls-20{fill:#68963f;}.cls-21{fill:#964f48;}</style></defs><title>cookknow app design</title><g id="text"><path class="cls-1" d="M46,27.62a54,54,0,0,0,29.09-2.11c24.6-8.75,44.83,2.58,49.92,9.72,5.9,8.28,6.88,19.18,4.14,29.15s-8.88,19.06-16.25,27c-5.76,6.18-12.49,11.86-20.55,15.08-7.87,3.15-16.5,3.78-24.93,4.2-10.84.55-21.87.83-32.2-1.71-8.42-2.07-17.07-7.18-17.8-15.24-.63-6.87,4.77-13.63,4-20.49C20.35,63.59,8.28,58.83,4.29,50.05c-4.65-10.25,1.26-21.54,9.33-24C22,23.56,35.39,25.39,46,27.62Z"/><path class="cls-2" d="M40.65,56.26h58V83.32h-58Z"/><path class="cls-3" d="M40.65,83.32H60v7.73H40.65Zm19.33,0H79.31v7.73H60Zm19.33,0H98.64v7.73H79.31Zm0-34.79H98.64v7.73H79.31Zm-38.66,0H60v7.73H40.65Zm19.33,0H79.31v7.73H60Z"/><path class="cls-4" d="M98.64,92h-58a1,1,0,0,1-1-1V83.32a1,1,0,1,1,1.93,0v6.77H59V83.32a1,1,0,1,1,1.93,0v6.77h17.4V83.32a1,1,0,1,1,1.93,0v6.77h17.4V83.32a1,1,0,1,1,1.93,0v7.73A1,1,0,0,1,98.64,92Zm0-34.8a1,1,0,0,1-1-1V49.49H80.27v6.77a1,1,0,0,1-1.93,0V49.49H60.94v6.77a1,1,0,0,1-1.93,0V49.49H41.61v6.77a1,1,0,0,1-1.93,0V48.53a1,1,0,0,1,1-1h58a1,1,0,0,1,1,1v7.73A1,1,0,0,1,98.64,57.22Z"/><path class="cls-4" d="M98.64,84.29h-58a1,1,0,0,1-1-1V56.26a1,1,0,0,1,1-1h58a1,1,0,0,1,1,1V83.32A1,1,0,0,1,98.64,84.29Zm-57-1.94H97.67V57.22H41.61Z"/><path class="cls-5" d="M67.28,76l13.4-5.92L67.32,64.31A15.22,15.22,0,0,0,67.28,76Z"/><circle class="cls-6" cx="69.23" cy="71.4" r="1.24"/><circle class="cls-6" cx="70.24" cy="67.93" r="0.62"/><circle class="cls-6" cx="73.98" cy="70.37" r="0.77"/><path class="cls-7" d="M65.09,77l2.19-1a15.22,15.22,0,0,1,0-11.67l-2.18-.94A17.7,17.7,0,0,0,65.09,77Z"/><g class="cls-8"><path class="cls-9" d="M66.44,64.28A15.27,15.27,0,0,0,66.4,76L65,76.59l.13.36,2.19-1a15.22,15.22,0,0,1,0-11.67l-2.18-.94-.12.29Z"/></g><path class="cls-10" d="M70.37,70.35a1.55,1.55,0,1,1-2.19-.08A1.56,1.56,0,0,1,70.37,70.35ZM68.55,72a.94.94,0,0,0,1.32,0,.93.93,0,0,0-1.27-1.36A1,1,0,0,0,68.55,72Z"/><path class="cls-10" d="M70.92,67.3a.94.94,0,0,1,0,1.31.93.93,0,0,1-1.31,0,.93.93,0,1,1,1.36-1.27Zm-.91.84a.31.31,0,0,0,.44,0,.31.31,0,1,0-.43-.45A.3.3,0,0,0,70,68.14Z"/><path class="cls-10" d="M74.78,69.63a1.09,1.09,0,0,1-1.59,1.48,1.09,1.09,0,1,1,1.59-1.48Zm-1.14,1.05a.47.47,0,0,0,.66,0,.46.46,0,0,0,0-.66.45.45,0,0,0-.65,0A.46.46,0,0,0,73.64,70.68Z"/><path class="cls-10" d="M80.9,69.85a.27.27,0,0,1,.09.21.3.3,0,0,1-.19.28L67.41,76.27a.36.36,0,0,1-.25,0A.29.29,0,0,1,67,76.1,15.61,15.61,0,0,1,67,64.18a.32.32,0,0,1,.4-.16L80.8,69.77A.27.27,0,0,1,80.9,69.85ZM67.45,75.57,79.9,70.06,67.48,64.71A15.06,15.06,0,0,0,67.45,75.57Z"/><path class="cls-10" d="M67.55,64.1a.28.28,0,0,1,0,.33.29.29,0,0,1-.4.16l-1.9-.81a17.5,17.5,0,0,0,0,12.76l1.89-.84a.3.3,0,0,1,.4.16.31.31,0,0,1-.15.41l-2.19,1a.36.36,0,0,1-.25,0,.35.35,0,0,1-.17-.17,18.14,18.14,0,0,1,.06-13.83.31.31,0,0,1,.4-.16l2.18.94Z"/><path class="cls-11" d="M38.11,36.31c-3.42,0-6.19-1.38-6.19-3.09V36c1.6.56,2.65,1.49,2.65,2.54V42a10.92,10.92,0,0,0,3.54.55c3.42,0,6.19-1.38,6.19-3.09V33.22C44.3,34.93,41.53,36.31,38.11,36.31Z"/><ellipse class="cls-12" cx="23.96" cy="30.56" rx="6.19" ry="3.1"/><ellipse class="cls-13" cx="23.96" cy="30.55" rx="1.33" ry="0.44"/><ellipse class="cls-12" cx="28.38" cy="38.55" rx="6.19" ry="3.1"/><path class="cls-11" d="M28.38,35.45a13,13,0,0,1,1.76.13v-5c0,1.71-2.78,3.09-6.19,3.09s-6.2-1.38-6.2-3.09v6.19c0,1.4,1.88,2.59,4.44,3V38.55C22.19,36.84,25,35.45,28.38,35.45Z"/><ellipse class="cls-13" cx="28.38" cy="38.54" rx="1.33" ry="0.44"/><path class="cls-11" d="M28.38,41.64c-3.42,0-6.19-1.38-6.19-3.09v6.19c0,1.71,2.77,3.1,6.19,3.1s6.19-1.39,6.19-3.1V38.55C34.57,40.26,31.8,41.64,28.38,41.64Z"/><g class="cls-8"><path class="cls-9" d="M24,40.72c-1.09-.56-1.77-1.33-1.77-2.17v6.19c0,.92.82,1.75,2.1,2.32a1.78,1.78,0,0,1-.33-1Z"/></g><ellipse class="cls-12" cx="38.11" cy="33.22" rx="6.19" ry="3.1"/><ellipse class="cls-13" cx="38.11" cy="33.2" rx="1.33" ry="0.44"/><g class="cls-14"><path class="cls-15" d="M30.16,41.51v6.2a8.11,8.11,0,0,0,3.1-1.06V40.46A7.93,7.93,0,0,1,30.16,41.51Z"/></g><g class="cls-8"><path class="cls-9" d="M19.52,32.73c-1.09-.55-1.76-1.32-1.76-2.16v6.19c0,.92.81,1.75,2.1,2.32a1.7,1.7,0,0,1-.33-1Z"/></g><g class="cls-14"><path class="cls-15" d="M28.83,35.46v-3a8,8,0,0,1-3.1,1.05v2.22a11.83,11.83,0,0,1,2.65-.3Zm11.07.72v6.19a7.94,7.94,0,0,0,3.09-1V35.13A7.94,7.94,0,0,1,39.9,36.18Z"/></g><g class="cls-8"><path class="cls-9" d="M33.69,35.38c-1.09-.56-1.77-1.32-1.77-2.16V36a5.72,5.72,0,0,1,1.77,1Z"/></g><path class="cls-10" d="M23.94,34.1c-3.72,0-6.63-1.55-6.63-3.54S20.22,27,23.94,27s6.64,1.56,6.64,3.54S27.66,34.1,23.94,34.1Zm0-6.19c-3.43,0-5.74,1.37-5.74,2.65s2.31,2.66,5.74,2.66,5.75-1.38,5.75-2.66S27.38,27.91,23.94,27.91Z"/><path class="cls-10" d="M23.94,31.43c-.85,0-1.76-.23-1.76-.88s.91-.88,1.76-.88,1.77.23,1.77.88S24.8,31.43,23.94,31.43Zm.95-.7h0Zm-.95-.18h0Z"/><path class="cls-10" d="M22.18,40.16h-.07c-2.87-.43-4.8-1.8-4.8-3.41V30.56a.45.45,0,0,1,.89,0v6.19c0,1.12,1.7,2.19,4,2.53a.45.45,0,0,1,.37.51A.43.43,0,0,1,22.18,40.16Zm8-4.16a.45.45,0,0,1-.45-.45v-5a.45.45,0,0,1,.89,0v5A.45.45,0,0,1,30.14,36Z"/><path class="cls-10" d="M28.37,42.09c-3.72,0-6.63-1.56-6.63-3.54S24.65,35,28.37,35,35,36.56,35,38.55,32.09,42.09,28.37,42.09Zm0-6.19c-3.44,0-5.75,1.37-5.75,2.65s2.31,2.65,5.75,2.65,5.75-1.37,5.75-2.65S31.81,35.9,28.37,35.9Z"/><path class="cls-10" d="M28.37,39.42c-.86,0-1.77-.23-1.77-.88s.91-.89,1.77-.89,1.77.23,1.77.89S29.22,39.42,28.37,39.42Zm.95-.71Zm-.95-.17Z"/><path class="cls-10" d="M28.37,48.28c-3.72,0-6.63-1.56-6.63-3.54V38.55a.43.43,0,0,1,.44-.44.44.44,0,0,1,.44.44v6.19c0,1.28,2.31,2.65,5.75,2.65s5.75-1.37,5.75-2.65V38.55a.44.44,0,0,1,.88,0v6.19C35,46.72,32.09,48.28,28.37,48.28Z"/><path class="cls-10" d="M38.1,36.76c-3.72,0-6.63-1.56-6.63-3.54s2.91-3.54,6.63-3.54,6.63,1.55,6.63,3.54S41.82,36.76,38.1,36.76Zm0-6.2c-3.44,0-5.75,1.38-5.75,2.66s2.31,2.65,5.75,2.65,5.75-1.37,5.75-2.65S41.54,30.56,38.1,30.56Z"/><path class="cls-10" d="M38.1,34.09c-.86,0-1.77-.23-1.77-.89s.91-.88,1.77-.88,1.77.23,1.77.88S39,34.09,38.1,34.09Zm.95-.71Zm-.95-.18Z"/><path class="cls-10" d="M38,43a11.45,11.45,0,0,1-3.57-.58.44.44,0,1,1,.28-.84,10.6,10.6,0,0,0,3.4.53c3.44,0,5.75-1.37,5.75-2.65V33.22a.45.45,0,0,1,.44-.45.44.44,0,0,1,.44.45v6.19C44.73,41.41,41.76,43,38,43Zm-6.08-6.52a.44.44,0,0,1-.44-.45V33.22a.43.43,0,0,1,.44-.44.44.44,0,0,1,.44.44V36A.45.45,0,0,1,31.91,36.43Z"/><path class="cls-16" d="M131.33,88.57c-1.42-2.66-4.34-4.65-9.16-2.88s-6,6-6.59,11.06a21.07,21.07,0,0,1-1.46,6.23,4.17,4.17,0,0,1-1.72,2l21.45-9.33A39.16,39.16,0,0,0,131.33,88.57Z"/><path class="cls-17" d="M122.17,85.65a9.51,9.51,0,0,1,4-.62,1.88,1.88,0,0,0-3-1.9,3.92,3.92,0,0,1-3.45.13c-1.42-.44-3.45.27-3.54,2.12s.18,2.35-.89,3.19-3,.57-2.25,2.69-.09,2.57-1,3.06a2.33,2.33,0,0,0-1,3c.58,1.06,2,1.63,1.11,2.87s-.93,2.44,2,2.88a21.86,21.86,0,0,0,1.46-6.28C116.2,91.66,117.4,87.42,122.17,85.65Z"/><path class="cls-18" d="M112.09,100.11c.84-1.24-.49-1.86-1.11-2.88s-.44-2.16,1-3,1.73-1.28,1-3,1.5-2.12,2.25-2.7.8-1.37.89-3.18a2.24,2.24,0,0,1,1.46-2,3.81,3.81,0,0,0-3.23.79,19.11,19.11,0,0,0-7.08,15c0,3.41.45,6.19,3.54,6.19,1.51,0,2.52-.84,3.27-2.39C111.16,102.59,111.65,100.77,112.09,100.11Z"/><g class="cls-8"><path class="cls-9" d="M117.62,83.35h-.53a2.58,2.58,0,0,0-2,2.34c-.09,1.9.18,2.52-.75,3.32a3.5,3.5,0,0,0,.88-.4c1.07-.84.8-1.37.89-3.18a2.24,2.24,0,0,1,1.46-2Zm-5.88,8.75a2.71,2.71,0,0,1,0,2.35l.27-.13c.92-.49,1.72-1.29,1-3.06a1.44,1.44,0,0,1,.22-1.68C112.27,89.94,111.07,90.38,111.74,92.1Zm-2.26,6.59c.66,1.11,2.12,1.77,1.2,3.14-.49.71-1,2.52,1.81,3a3,3,0,0,0,.71-.57,5.23,5.23,0,0,0,.92-1.37l-.44-.09c-2.47-.53-2-2.17-1.59-2.79s-.49-1.85-1.11-2.87a1.86,1.86,0,0,1-.08-2l-.31.18C109,96.31,108.82,97.59,109.48,98.69Z"/></g><path class="cls-10" d="M110.85,105.81c-3.53,0-4-3.54-4-6.63a19.37,19.37,0,0,1,7.24-15.38,4.22,4.22,0,0,1,3.6-.88.44.44,0,0,1,.34.52.44.44,0,0,1-.52.34,3.36,3.36,0,0,0-2.86.7,18.51,18.51,0,0,0-6.91,14.7c0,4.08.89,5.75,3.09,5.75a2.84,2.84,0,0,0,.88-.14h0l.41-.18c1.51-.83,2.44-3.33,3-7.92s1.58-9.57,6.87-11.46c6.09-2.17,8.81,1.46,9.7,3.13a39.5,39.5,0,0,1,2.56,7.17.46.46,0,0,1-.26.52l-21.46,9.35A3.52,3.52,0,0,1,110.85,105.81Zm14.72-20.37a9.66,9.66,0,0,0-3.25.62c-4.34,1.56-5.63,5.27-6.3,10.74a18.7,18.7,0,0,1-1.83,6.92l19.13-8.33a36.24,36.24,0,0,0-2.38-6.62A5.93,5.93,0,0,0,125.57,85.44Z"/><path class="cls-10" d="M114.13,103.43h-.06a3,3,0,0,1-2.59-1.46,2.29,2.29,0,0,1,.24-2.1c.21-.31-.39-1.26-.79-1.89-.11-.17-.22-.34-.32-.51a2.37,2.37,0,0,1-.33-1.87,2.85,2.85,0,0,1,1.51-1.71c1.27-.69,1.43-.92.82-2.5-.69-1.75.82-2.44,1.72-2.86a4.19,4.19,0,0,0,.68-.35c.56-.43.62-1,.71-2.85a2.62,2.62,0,0,1,1.14-2.07,3.56,3.56,0,0,1,3-.46l0,0a3.47,3.47,0,0,0,3-.09,2.46,2.46,0,0,1,2.87,0,2.14,2.14,0,0,1,.81,2.37.44.44,0,1,1-.85-.25,1.25,1.25,0,0,0-.49-1.41,1.59,1.59,0,0,0-1.85,0,4.29,4.29,0,0,1-3.85.18,2.59,2.59,0,0,0-2.17.35,1.76,1.76,0,0,0-.77,1.38c-.09,1.87-.14,2.81-1.06,3.51a4.11,4.11,0,0,1-.84.46c-1.12.51-1.61.85-1.27,1.73.81,2.07.41,2.71-1.22,3.6a2,2,0,0,0-1.08,1.16,1.56,1.56,0,0,0,.23,1.18c.1.16.2.33.31.49.65,1,1.32,2.07.79,2.86a1.4,1.4,0,0,0-.17,1.25c.21.48.87.81,1.89.94a.44.44,0,0,1,.38.5A.45.45,0,0,1,114.13,103.43Z"/><path class="cls-7" d="M31,101.22c-1.81-.84-1.63-1.28-4.64-1.42s-4.33.31-6.19-.88A6.12,6.12,0,0,0,16.6,98a6.84,6.84,0,0,1-4.42-.88V99.8l23,5.31v-4.42A4.18,4.18,0,0,1,31,101.22Z"/><path class="cls-19" d="M35.18,95.38s-9.2-7-13.27-10.61C14.83,86.09,12.18,91,12.18,91Z"/><g class="cls-8"><path class="cls-9" d="M31,101.22c-1.81-.84-1.63-1.28-4.64-1.42s-4.33.31-6.19-.88A6.12,6.12,0,0,0,16.6,98a6.84,6.84,0,0,1-4.42-.88V99.8l23,5.31v-4.42A4.18,4.18,0,0,1,31,101.22Z"/></g><path class="cls-7" d="M35.18,95.38,12.18,91V94.5l23,4.42Z"/><path class="cls-20" d="M12.18,94.5v2.65A6.84,6.84,0,0,0,16.6,98a6.12,6.12,0,0,1,3.54.89c1.86,1.19,3.18.75,6.19.88s2.83.58,4.64,1.42a4.18,4.18,0,0,0,4.21-.53V98.92Z"/><path class="cls-10" d="M35.18,95.82h-.09l-23-4.42a.44.44,0,0,1-.32-.24.43.43,0,0,1,0-.4c.11-.21,2.84-5.07,10-6.42a.45.45,0,0,1,.37.1C26.21,88,35.35,95,35.44,95a.44.44,0,0,1-.26.79ZM12.91,90.65l20.52,3.94c-2.73-2.1-8.55-6.64-11.65-9.35A14.31,14.31,0,0,0,12.91,90.65Z"/><path class="cls-10" d="M35.18,105.55h-.1l-23-5.31a.43.43,0,0,1-.34-.43V94.5h0V91a.44.44,0,0,1,.88,0v3.17l22.11,4.25v-3a.45.45,0,0,1,.89,0v9.73a.46.46,0,0,1-.17.35A.46.46,0,0,1,35.18,105.55Zm-22.56-6.1,22.11,5.1V99.28L12.62,95Z"/><path class="cls-10" d="M32.63,102a4.52,4.52,0,0,1-1.83-.38,12.27,12.27,0,0,1-1.13-.59,5.84,5.84,0,0,0-3.36-.79c-.78,0-1.45,0-2,0a7,7,0,0,1-4.37-.93,5.59,5.59,0,0,0-3.27-.82c-2.34.28-4.56-.65-4.83-1.09a.45.45,0,0,1,.15-.61.44.44,0,0,1,.57.1,6.93,6.93,0,0,0,4,.72,6.53,6.53,0,0,1,3.82,1,6.08,6.08,0,0,0,3.89.79c.6,0,1.29,0,2.09,0,2.34.1,2.87.4,3.75.9.29.17.61.35,1.06.56a3.71,3.71,0,0,0,3.74-.48.45.45,0,1,1,.55.7A4.64,4.64,0,0,1,32.63,102ZM12.56,96.92Zm-.05-.06,12-6.34a.45.45,0,0,1-.44-.45V78.58a.45.45,0,0,1,.44-.45.44.44,0,0,1,.44.45V90.07A.44.44,0,0,1,24.56,90.52Z"/><rect class="cls-21" x="106.43" y="24.01" width="5.31" height="26.53" rx="2.21" transform="matrix(0.51, -0.86, 0.86, 0.51, 21.46, 112.19)"/><g class="cls-8"><path class="cls-9" d="M118.31,44.28,99.28,33a2.21,2.21,0,0,1-.78-3l.45-.76a2.2,2.2,0,0,0-1.06.92l-.45.76a2.22,2.22,0,0,0,.78,3l19,11.25a2.2,2.2,0,0,0,3-.77A2.24,2.24,0,0,1,118.31,44.28Z"/></g><path class="cls-7" d="M117.63,45.42l-1.12,1.9a2.22,2.22,0,0,1-3,.78l-16-9.46a2.21,2.21,0,0,1-.78-3l1.13-1.9m2.7-4.57,1.35-2.28a6.2,6.2,0,0,1,8.48-2.18l9.14,5.41a6.19,6.19,0,0,1,2.17,8.48l-1.35,2.28"/><circle class="cls-19" cx="107.81" cy="27.28" r="0.44"/><circle class="cls-19" cx="110.4" cy="29.84" r="0.44"/><circle class="cls-19" cx="113.59" cy="29.67" r="0.44"/><circle class="cls-19" cx="115.73" cy="32.99" r="0.44"/><circle class="cls-19" cx="119.23" cy="34.03" r="0.44"/><g class="cls-8"><path class="cls-9" d="M97.84,33.71l19.79,11.71-.9,1.52L96.94,35.23Z"/></g><path class="cls-10" d="M117,45.57,98,34.32a2.67,2.67,0,0,1-.93-3.64l.45-.76a2.66,2.66,0,0,1,3.64-.93l19,11.26a2.64,2.64,0,0,1,.93,3.63l-.45.76A2.64,2.64,0,0,1,117,45.57ZM100.7,29.75a1.78,1.78,0,0,0-2.43.62l-.45.76a1.78,1.78,0,0,0,.62,2.43l19,11.25a1.76,1.76,0,0,0,2.42-.62l.45-.76a1.76,1.76,0,0,0-.62-2.42Z"/><path class="cls-10" d="M113.25,48.48,97.27,39a2.66,2.66,0,0,1-.94-3.63l1.13-1.9a.44.44,0,0,1,.6-.16.45.45,0,0,1,.16.61l-1.13,1.9a1.77,1.77,0,0,0,.63,2.42l16,9.46a1.78,1.78,0,0,0,2.43-.62l1.12-1.91a.44.44,0,0,1,.61-.15.43.43,0,0,1,.15.6l-1.12,1.91A2.67,2.67,0,0,1,113.25,48.48Zm6.86-7.25a.44.44,0,0,1-.16-.6l1.35-2.29a5.74,5.74,0,0,0-2-7.87l-9.13-5.41a5.77,5.77,0,0,0-7.88,2l-1.35,2.28a.44.44,0,0,1-.76-.45l1.35-2.28a6.65,6.65,0,0,1,9.09-2.34l9.13,5.41a6.62,6.62,0,0,1,2.33,9.08l-1.35,2.29A.43.43,0,0,1,120.11,41.23Z"/><circle class="cls-10" cx="107.81" cy="27.28" r="0.88"/><circle class="cls-10" cx="110.4" cy="29.84" r="0.88"/><circle class="cls-10" cx="113.59" cy="29.67" r="0.88"/><circle class="cls-10" cx="115.73" cy="32.99" r="0.88"/><circle class="cls-10" cx="119.23" cy="34.03" r="0.88"/></g></svg>