<svg xmlns="http://www.w3.org/2000/svg" viewBox="0 0 136 136"><defs><style>.cls-1{fill:#e0e0e0;}.cls-2{fill:#dde5f4;}.cls-17,.cls-3,.cls-5{fill:#fff;}.cls-3,.cls-4{opacity:0.25;}.cls-14,.cls-16,.cls-3,.cls-4,.cls-5,.cls-8{isolation:isolate;}.cls-15,.cls-4{fill:#101129;}.cls-5{opacity:0.5;}.cls-11,.cls-6{fill:none;stroke-linecap:round;stroke-width:2px;}.cls-6{stroke:#2f446a;stroke-linejoin:round;}.cls-7{fill:#c3d6f9;}.cls-8{opacity:0.15;}.cls-9{fill:#000028;}.cls-10{fill:#2e4369;}.cls-11{stroke:#d40000;stroke-miterlimit:10;}.cls-12{fill:#8aaf3f;}.cls-13{fill:#f3d111;}.cls-14{opacity:0.18;}.cls-16{opacity:0.4;}.cls-18{fill:#2f446a;}.cls-19{fill:#f0494c;}.cls-20{fill:#964f48;}.cls-21{fill:#f6b36d;}.cls-22{fill:#fad8b6;}</style></defs><title>cookknow app design</title><g id="text"><path class="cls-1" d="M107.59,87c20.32-16.31,17.88-34.18,1-30.78-13,2.61-15.63-4.84-23-16.38C78,28,61,36.73,49.84,29.94,31,18.46,30.65,37.08,30.47,49.53S14.14,68.69,17.3,84.59c2.57,12.92,22.52,1.6,41.92,12.63C85.55,112.19,89.13,101.83,107.59,87Z"/><circle class="cls-2" cx="28.02" cy="30.45" r="20.45"/><path class="cls-3" d="M28,10a20.37,20.37,0,0,0-15.13,6.68,20.45,20.45,0,0,1,28.9,28.9A20.45,20.45,0,0,0,28,10Z"/><path class="cls-4" d="M28.43,17.77a12.3,12.3,0,0,0-9.61,4.7A12.27,12.27,0,0,1,36.07,39.65a12.27,12.27,0,0,0-7.64-21.88Z"/><path class="cls-5" d="M26.79,44.22a12.23,12.23,0,0,0,9.34-4.29A12.27,12.27,0,0,1,18.82,22.61a12.27,12.27,0,0,0,8,21.61Z"/><circle class="cls-6" cx="28.02" cy="30.45" r="20.45"/><circle class="cls-6" cx="28.02" cy="30.45" r="12.27"/><path class="cls-7" d="M113.19,81.53,110.8,118.7a3.94,3.94,0,0,1-3.79,3.86H87a4,4,0,0,1-3.87-3.87L80.83,81.51Z"/><g class="cls-8"><path class="cls-9" d="M113.19,81.53l-32.36,0,2.27,37.17A4,4,0,0,0,87,122.55h4L89,84.67h24Z"/></g><path class="cls-10" d="M87,123.34a4.73,4.73,0,0,1-4.66-4.64L80.09,82.3h-3.6a.79.79,0,0,1,0-1.58H88.33V78.28a3.88,3.88,0,0,1,3.87-3.87h9.63a3.86,3.86,0,0,1,3.86,3.87v2.44h11.84a.79.79,0,1,1,0,1.58h-3.6l-2.26,36.43a4.71,4.71,0,0,1-4.64,4.6Zm-5.3-41,2.22,36.33A3.15,3.15,0,0,0,87,121.76h20a3.14,3.14,0,0,0,3.08-3.09l2.26-36.36Zm8.24-1.57h14.21V78.29A2.29,2.29,0,0,0,101.83,76H92.2a2.3,2.3,0,0,0-2.29,2.29ZM103.31,117h0a.79.79,0,0,1-.74-.83l1.59-28.41a.79.79,0,0,1,.84-.74.79.79,0,0,1,.74.83l-1.59,28.41A.8.8,0,0,1,103.31,117Zm-12.63,0a.8.8,0,0,1-.79-.75L88.33,87.87a.79.79,0,0,1,1.57-.09l1.57,28.42a.8.8,0,0,1-.75.83ZM97,117a.78.78,0,0,1-.78-.79V87.83a.79.79,0,0,1,1.58,0l0,28.41A.79.79,0,0,1,97,117Z"/><line class="cls-11" x1="73.13" y1="73.1" x2="123.87" y2="123.9"/><line class="cls-11" x1="73.1" y1="123.87" x2="123.9" y2="73.13"/><path class="cls-12" d="M69.4,57.74a3.53,3.53,0,0,1-1.09-2.41L70,54.17s-1,1.11,1.08,2.45"/><path class="cls-13" d="M71.84,56.38a3.73,3.73,0,0,0-1.69.71,3.85,3.85,0,0,0-1.28,1.35c-1.32.85-2.6,2.82-1.56,4.32s2,2.15,3,3.45,2.9,4.14,5,2.71c1.66-1.15,1.17-1.42,1.79-1.85s.7.13,2.37-1c2-1.42-.05-4.33-.81-5.59s-1.18-2.6-2.17-4S73.09,55.43,71.84,56.38Z"/><g class="cls-14"><path class="cls-15" d="M76.2,67.08c-1.89,1.25-4.26-3.85-4.26-3.85-.82-1.18-4.07-2.81-3.07-4.79-1.32.85-2.6,2.82-1.56,4.32s2,2.15,3,3.45,2.9,4.14,5,2.71c1.66-1.15,1.17-1.42,1.79-1.85s.7.13,2.37-1a1.88,1.88,0,0,0,.87-1.4C79.38,66.29,77.79,66,76.2,67.08Z"/></g><g class="cls-16"><ellipse class="cls-17" cx="72.43" cy="58.65" rx="1.01" ry="1.52" transform="matrix(0.82, -0.57, 0.57, 0.82, -20.51, 51.69)"/></g><path class="cls-18" d="M79.6,66.29a3.9,3.9,0,0,1-1.89.86.88.88,0,0,0-.48.17.9.9,0,0,0-.32.39,3.89,3.89,0,0,1-1.47,1.46c-2.07,1.44-3.91-1-5-2.4l-.29-.36A16.43,16.43,0,0,0,68.88,65a14.93,14.93,0,0,1-1.75-2.06A2.44,2.44,0,0,1,66.75,61a4.66,4.66,0,0,1,2-2.77.25.25,0,1,1,.27.43,4.16,4.16,0,0,0-1.77,2.44,1.89,1.89,0,0,0,.29,1.53,15,15,0,0,0,1.7,2,17.34,17.34,0,0,1,1.3,1.44l.29.37c1.34,1.75,2.77,3.37,4.33,2.3,1-.68,1.16-1,1.3-1.29A1.44,1.44,0,0,1,77,66.9a1.35,1.35,0,0,1,.7-.25,3.36,3.36,0,0,0,1.66-.77c1.54-1.07.48-3.07-.63-4.86l-.24-.4c-.32-.53-.57-1-.84-1.6a15.82,15.82,0,0,0-1.33-2.41,1.91,1.91,0,0,0-1.34-.79,4.15,4.15,0,0,0-2.92.79.26.26,0,0,1-.31-.41A4.65,4.65,0,0,1,75,55.32a2.4,2.4,0,0,1,1.67,1,16.47,16.47,0,0,1,1.38,2.48c.26.54.51,1.06.81,1.56l.24.39C80,62.19,81.66,64.86,79.6,66.29Zm-8.39-9.44a.26.26,0,0,1-.28,0,2.73,2.73,0,0,1-1.43-1.78.91.91,0,0,1,0-.23l-.93.64a3.41,3.41,0,0,0,1,2.09.25.25,0,0,1-.36.36,3.67,3.67,0,0,1-1.16-2.64.29.29,0,0,1,.11-.16L69.84,54a.25.25,0,0,1,.34,0,.26.26,0,0,1,0,.34A.8.8,0,0,0,70,55a2.31,2.31,0,0,0,1.2,1.41.25.25,0,0,1,.08.35A.23.23,0,0,1,71.21,56.85Z"/><path class="cls-18" d="M76.59,62.84a.25.25,0,0,1-.35-.06l-1.15-1.66a7.47,7.47,0,0,1-.66-1.5c-.42-1.16-.94-2.59-1.93-2.9a2.58,2.58,0,0,0-2.18.62C69.45,58,69,58.56,69,59.16c0,1,1,2,2,2.78a7.61,7.61,0,0,1,1.21,1.19.25.25,0,0,1-.06.35.27.27,0,0,1-.36-.06,7.33,7.33,0,0,0-1.12-1.09c-1-.86-2.25-1.93-2.18-3.19a4,4,0,0,1,4.2-2.91c1.22.39,1.79,2,2.24,3.21a8,8,0,0,0,.6,1.39l1.16,1.66A.25.25,0,0,1,76.59,62.84Z"/><circle class="cls-19" cx="108.2" cy="70.27" r="2.09"/><circle class="cls-19" cx="112.75" cy="70.71" r="2.09"/><g class="cls-14"><path class="cls-15" d="M106.8,69.23a2.23,2.23,0,0,1,.48-.83,2.09,2.09,0,0,0,1.8,3.78,2.12,2.12,0,0,0,.64-.47,2.09,2.09,0,0,1-2.92-2.48Zm6,3a2.1,2.1,0,0,1-.92-3.43,2.09,2.09,0,0,0,1.8,3.78,2.3,2.3,0,0,0,.64-.47A2.11,2.11,0,0,1,112.75,72.27Z"/></g><g class="cls-16"><ellipse class="cls-17" cx="108.96" cy="69.33" rx="0.52" ry="0.6" transform="translate(11.11 153.61) rotate(-73.21)"/></g><g class="cls-16"><ellipse class="cls-17" cx="113.65" cy="69.81" rx="0.52" ry="0.6" transform="translate(13.99 158.45) rotate(-73.21)"/></g><path class="cls-18" d="M107.56,72.42a2.24,2.24,0,1,1,2.79-1.5A2.24,2.24,0,0,1,107.56,72.42Zm1.2-4a1.94,1.94,0,1,0,1.3,2.42A2,2,0,0,0,108.76,68.41Z"/><path class="cls-18" d="M112.1,72.85a2.24,2.24,0,0,1,1.3-4.29,2.24,2.24,0,1,1-1.3,4.29Zm1.21-4a1.94,1.94,0,1,0,1.3,2.42A1.94,1.94,0,0,0,113.31,68.85Z"/><path class="cls-18" d="M108.76,68.41a.15.15,0,0,1-.1-.18,6.94,6.94,0,0,1,3.12-3.9L111,64.1a.15.15,0,0,1,.09-.29l1.14.34h0l.86.26a.16.16,0,0,1,.1.19.15.15,0,0,1-.19.1l-.68-.21a5.5,5.5,0,0,0,1.11,4.11.15.15,0,1,1-.24.18A5.89,5.89,0,0,1,112,64.54,6.69,6.69,0,0,0,109,68.31a.14.14,0,0,1-.18.1Z"/><path class="cls-12" d="M89,55.47l.39.05a1.39,1.39,0,1,0-2.65.84,1.41,1.41,0,0,0,.19.39A2.32,2.32,0,0,1,89,55.47Z"/><path class="cls-19" d="M97.31,65.23c-2,0-3.14-.61-4.3-3.63s-1.51-4.22-2.13-5.11l-.21-.25h0a2.31,2.31,0,0,0-1.3-.7L89,55.47a2.32,2.32,0,0,0-2.32,2.32v.1c0,2.78,4.62,9.17,10.65,9.19h0a.93.93,0,1,0,0-1.85Z"/><g class="cls-14"><path class="cls-15" d="M97.8,66.39h0c-6.06,0-10.68-6.41-10.68-9.2V57.1a2.22,2.22,0,0,1,.19-.91,2.3,2.3,0,0,0-.65,1.6v.1c0,2.78,4.62,9.17,10.68,9.19h0a.93.93,0,0,0,.89-.81A1.16,1.16,0,0,1,97.8,66.39Z"/></g><g class="cls-16"><ellipse class="cls-17" cx="89.35" cy="57.38" rx="0.81" ry="1.16" transform="translate(-14.41 79.99) rotate(-45)"/></g><path class="cls-18" d="M97.28,67.32c-6.29,0-10.89-6.63-10.89-9.43v-.1a2.76,2.76,0,0,1,.23-1,1.62,1.62,0,0,1-.21-1.1,1.57,1.57,0,0,1,.66-1.05l.17-.11a2.44,2.44,0,0,0-2-1.13.23.23,0,1,1,0-.46,2.85,2.85,0,0,1,2.45,1.43,1.63,1.63,0,0,1,1.66.64,1.66,1.66,0,0,1,.18.35,2.44,2.44,0,0,1,1.24.69.24.24,0,0,1,.09.06l.2.26a13.67,13.67,0,0,1,1.43,3.19c.21.56.45,1.21.75,2C94.36,64.46,95.49,65,97.31,65a1.16,1.16,0,0,1,1.16,1.16h0a1.16,1.16,0,0,1-1.13,1.17ZM89,55.74a2.05,2.05,0,0,0-1.43.56,2.12,2.12,0,0,0-.66,1.5v.09c0,2.58,4.51,8.94,10.43,9h0a.68.68,0,0,0,.67-.7h0a.69.69,0,0,0-.69-.69c-2,0-3.3-.6-4.52-3.77-.29-.78-.54-1.43-.74-2a14.12,14.12,0,0,0-1.36-3.07l-.16-.19-.06,0A2.06,2.06,0,0,0,89,55.74Zm-.94-1a1.18,1.18,0,0,0-.67.21,1.16,1.16,0,0,0-.47.76,1.1,1.1,0,0,0,0,.54A1.81,1.81,0,0,1,87.2,56,2.55,2.55,0,0,1,89,55.27h0A1.19,1.19,0,0,0,88,54.78Z"/><rect class="cls-20" x="100.28" y="41.41" width="3.78" height="18.92" rx="1.58" transform="translate(24.98 134.95) rotate(-73.92)"/><g class="cls-14"><path class="cls-15" d="M109.79,54.05,94.64,49.69a1.59,1.59,0,0,1-1.08-2l.18-.6a1.54,1.54,0,0,0-.57.82l-.17.61a1.58,1.58,0,0,0,1.07,1.95l15.16,4.37a1.58,1.58,0,0,0,2-1.08A1.57,1.57,0,0,1,109.79,54.05Z"/></g><path class="cls-21" d="M109.53,55l-.44,1.52a1.57,1.57,0,0,1-2,1.08L94.41,53.89a1.58,1.58,0,0,1-1.08-2l.44-1.52m1-3.64L95.34,45a4.41,4.41,0,0,1,5.47-3L108.08,44a4.41,4.41,0,0,1,3,5.47l-.52,1.82"/><circle class="cls-22" cx="99.5" cy="44.2" r="0.32"/><circle class="cls-22" cx="101.75" cy="45.5" r="0.32"/><circle class="cls-22" cx="103.92" cy="44.81" r="0.32"/><circle class="cls-22" cx="106" cy="46.72" r="0.32"/><circle class="cls-22" cx="108.6" cy="46.82" r="0.32"/><g class="cls-14"><path class="cls-15" d="M93.77,50.42,109.53,55l-.35,1.22L93.42,51.63Z"/></g><path class="cls-18" d="M109.14,55.18,94,50.81a1.89,1.89,0,0,1-1.3-2.34l.18-.61a1.89,1.89,0,0,1,2.34-1.29l15.15,4.37a1.9,1.9,0,0,1,1.3,2.34l-.18.61A1.89,1.89,0,0,1,109.14,55.18Zm-14.1-8a1.28,1.28,0,0,0-1.57.87l-.17.6a1.26,1.26,0,0,0,.86,1.56l15.15,4.37a1.27,1.27,0,0,0,1.57-.86l.17-.61a1.27,1.27,0,0,0-.86-1.56Z"/><path class="cls-18" d="M107.05,57.86,94.33,54.19A1.89,1.89,0,0,1,93,51.85l.44-1.52a.32.32,0,0,1,.39-.21.31.31,0,0,1,.21.39L93.64,52a1.25,1.25,0,0,0,.86,1.56l12.73,3.67a1.25,1.25,0,0,0,1.56-.86l.44-1.51a.31.31,0,0,1,.39-.22.32.32,0,0,1,.21.39l-.43,1.52A1.9,1.9,0,0,1,107.05,57.86Zm3.44-6.23a.32.32,0,0,1-.22-.39l.53-1.82a4.09,4.09,0,0,0-2.8-5.07l-7.28-2.1a4.09,4.09,0,0,0-5.07,2.8l-.53,1.82a.31.31,0,0,1-.39.22.32.32,0,0,1-.21-.39L95,44.88a4.74,4.74,0,0,1,5.86-3.24l7.27,2.1a4.73,4.73,0,0,1,3.23,5.86l-.52,1.81A.31.31,0,0,1,110.49,51.63Z"/><circle class="cls-18" cx="99.5" cy="44.2" r="0.63"/><circle class="cls-18" cx="101.75" cy="45.5" r="0.63"/><circle class="cls-18" cx="103.92" cy="44.81" r="0.63"/><circle class="cls-18" cx="106" cy="46.72" r="0.63"/><circle class="cls-18" cx="108.6" cy="46.82" r="0.63"/><path class="cls-18" d="M82,38.41a21.32,21.32,0,0,1,6.1,3,.74.74,0,1,0,.75-1.28A22.43,22.43,0,0,0,82.37,37c-.91-.28-1.3,1.14-.39,1.42Z"/><path class="cls-18" d="M81.54,42.27a11.44,11.44,0,0,1,5.69,2.52.74.74,0,0,0,1-1,12.85,12.85,0,0,0-6.35-2.9.78.78,0,0,0-.91.52.75.75,0,0,0,.52.91Z"/><path class="cls-18" d="M56,50.41a21.32,21.32,0,0,1,6.1,3,.74.74,0,1,0,.75-1.28A22.43,22.43,0,0,0,56.37,49c-.91-.28-1.3,1.14-.39,1.42Z"/><path class="cls-18" d="M55.54,54.27a11.44,11.44,0,0,1,5.69,2.52.74.74,0,0,0,1.05-1,12.85,12.85,0,0,0-6.35-2.9.78.78,0,0,0-.91.52.75.75,0,0,0,.52.91Z"/></g></svg>