<svg xmlns="http://www.w3.org/2000/svg" viewBox="0 0 136 136"><defs><style>.cls-1{fill:#e0e0e0;}.cls-2{fill:#4c5e7d;}.cls-3{fill:#fff4e8;}.cls-4{fill:#f26950;}.cls-5{opacity:0.18;}.cls-12,.cls-5,.cls-7{isolation:isolate;}.cls-6{fill:#101129;}.cls-7{opacity:0.25;}.cls-8{fill:#fff;}.cls-9{fill:#2f446a;}.cls-10{fill:#dbf1ff;}.cls-11{fill:#f27e7c;}.cls-12{opacity:0.12;}.cls-13{fill:#000064;}.cls-14{fill:#2e4369;}.cls-15{fill:#f9cb9a;}.cls-16{fill:#fdc20f;}.cls-17{fill:#68963f;}.cls-18{fill:#f16262;}.cls-19{fill:#de9d63;}.cls-20{fill:#f6b36d;}.cls-21{fill:#faf287;}.cls-22{fill:#f04848;}.cls-23{fill:#ffe6c5;}</style></defs><title>cookknow app design</title><g id="text"><path class="cls-1" d="M45,80.93c-5.1-2.6-11.53-2.75-17.24-3.66-5.32-.84-15-4.55-18.88-8.57-6.69-7-6.29-22.12,3.83-27,11.6-5.56,26.17-.45,38.74,1.2,19.4,2.54,23.58-12.44,42.44-15,7.22-1,17.52,1.18,21.05,8.53,4.49,9.33-1.46,20,5.27,28.89,2.51,3.31,18.8,17.24,2.17,22.72-6,2-12.05,3.23-18.13,4.69-5.85,1.4-11.54,3.07-16.79,6-7,4-14.73,9.89-22.8,5.89C54.26,99.53,54.46,85.76,45,80.93Z"/><path class="cls-2" d="M119.11,114.31c-3.42,0-6.19-1.38-6.19-3.09V114c1.6.56,2.65,1.49,2.65,2.54V120a10.92,10.92,0,0,0,3.54.55c3.42,0,6.19-1.38,6.19-3.09v-6.19C125.3,112.93,122.53,114.31,119.11,114.31Z"/><ellipse class="cls-3" cx="104.96" cy="108.56" rx="6.19" ry="3.1"/><ellipse class="cls-4" cx="104.96" cy="108.55" rx="1.33" ry="0.44"/><ellipse class="cls-3" cx="109.38" cy="116.55" rx="6.19" ry="3.1"/><path class="cls-2" d="M109.38,113.45a13,13,0,0,1,1.76.13v-5c0,1.71-2.78,3.09-6.19,3.09s-6.2-1.38-6.2-3.09v6.19c0,1.4,1.88,2.59,4.44,3v-1.18C103.19,114.84,106,113.45,109.38,113.45Z"/><ellipse class="cls-4" cx="109.38" cy="116.54" rx="1.33" ry="0.44"/><path class="cls-2" d="M109.38,119.64c-3.42,0-6.19-1.38-6.19-3.09v6.19c0,1.71,2.77,3.1,6.19,3.1s6.19-1.39,6.19-3.1v-6.19C115.57,118.26,112.8,119.64,109.38,119.64Z"/><g class="cls-5"><path class="cls-6" d="M105,118.72c-1.09-.56-1.77-1.33-1.77-2.17v6.19c0,.92.82,1.75,2.1,2.32a1.78,1.78,0,0,1-.33-1Z"/></g><ellipse class="cls-3" cx="119.11" cy="111.22" rx="6.19" ry="3.1"/><ellipse class="cls-4" cx="119.11" cy="111.2" rx="1.33" ry="0.44"/><g class="cls-7"><path class="cls-8" d="M111.16,119.51v6.2a8.11,8.11,0,0,0,3.1-1.06v-6.19A7.93,7.93,0,0,1,111.16,119.51Z"/></g><g class="cls-5"><path class="cls-6" d="M100.52,110.73c-1.09-.55-1.76-1.32-1.76-2.16v6.19c0,.92.81,1.75,2.1,2.32a1.7,1.7,0,0,1-.33-1Z"/></g><g class="cls-7"><path class="cls-8" d="M109.83,113.46v-3a8,8,0,0,1-3.1,1v2.22a11.83,11.83,0,0,1,2.65-.3Zm11.07.72v6.19a7.94,7.94,0,0,0,3.09-1.05v-6.19A7.94,7.94,0,0,1,120.9,114.18Z"/></g><g class="cls-5"><path class="cls-6" d="M114.69,113.38c-1.09-.56-1.77-1.32-1.77-2.16V114a5.72,5.72,0,0,1,1.77.95Z"/></g><path class="cls-9" d="M104.94,112.1c-3.72,0-6.63-1.55-6.63-3.54s2.91-3.54,6.63-3.54,6.64,1.56,6.64,3.54S108.66,112.1,104.94,112.1Zm0-6.19c-3.43,0-5.74,1.37-5.74,2.65s2.31,2.66,5.74,2.66,5.75-1.38,5.75-2.66S108.38,105.91,104.94,105.91Z"/><path class="cls-9" d="M104.94,109.43c-.85,0-1.76-.23-1.76-.88s.91-.88,1.76-.88,1.77.23,1.77.88S105.8,109.43,104.94,109.43Zm1-.7h0Zm-1-.18h0Z"/><path class="cls-9" d="M103.18,118.16h-.07c-2.87-.43-4.8-1.8-4.8-3.41v-6.19a.45.45,0,0,1,.89,0v6.19c0,1.12,1.7,2.19,4,2.53a.45.45,0,0,1,.37.51A.43.43,0,0,1,103.18,118.16Zm8-4.16a.45.45,0,0,1-.45-.45v-5a.45.45,0,0,1,.89,0v5A.45.45,0,0,1,111.14,114Z"/><path class="cls-9" d="M109.37,120.09c-3.72,0-6.63-1.56-6.63-3.54s2.91-3.54,6.63-3.54,6.63,1.55,6.63,3.54S113.09,120.09,109.37,120.09Zm0-6.19c-3.44,0-5.75,1.37-5.75,2.65s2.31,2.65,5.75,2.65,5.75-1.37,5.75-2.65S112.81,113.9,109.37,113.9Z"/><path class="cls-9" d="M109.37,117.42c-.86,0-1.77-.23-1.77-.88s.91-.89,1.77-.89,1.77.23,1.77.89S110.22,117.42,109.37,117.42Zm.95-.71Zm-.95-.17Z"/><path class="cls-9" d="M109.37,126.28c-3.72,0-6.63-1.56-6.63-3.54v-6.19a.43.43,0,0,1,.44-.44.44.44,0,0,1,.44.44v6.19c0,1.28,2.31,2.65,5.75,2.65s5.75-1.37,5.75-2.65v-6.19a.44.44,0,0,1,.88,0v6.19C116,124.72,113.09,126.28,109.37,126.28Z"/><path class="cls-9" d="M119.1,114.76c-3.72,0-6.63-1.56-6.63-3.54s2.91-3.54,6.63-3.54,6.63,1.55,6.63,3.54S122.82,114.76,119.1,114.76Zm0-6.2c-3.44,0-5.75,1.38-5.75,2.66s2.31,2.65,5.75,2.65,5.75-1.37,5.75-2.65S122.54,108.56,119.1,108.56Z"/><path class="cls-9" d="M119.1,112.09c-.86,0-1.77-.23-1.77-.89s.91-.88,1.77-.88,1.77.23,1.77.88S120,112.09,119.1,112.09Zm1-.71Zm-1-.18Z"/><path class="cls-9" d="M119,121a11.45,11.45,0,0,1-3.57-.58.44.44,0,0,1,.28-.84,10.6,10.6,0,0,0,3.4.53c3.44,0,5.75-1.37,5.75-2.65v-6.19a.45.45,0,0,1,.44-.45.44.44,0,0,1,.44.45v6.19C125.73,119.41,122.76,121,119,121Zm-6.08-6.52a.44.44,0,0,1-.44-.45v-2.76a.43.43,0,0,1,.44-.44.44.44,0,0,1,.44.44V114A.45.45,0,0,1,112.91,114.43Z"/><path class="cls-10" d="M60.06,67.31v18l-6-4-6,4v-18h-2a8,8,0,0,0-8,8V119a8,8,0,0,1,8-7.95H68V67.31Z"/><path class="cls-11" d="M48.13,63.44V85.3l6-4,6,4V63.44Z"/><g class="cls-12"><path class="cls-13" d="M46.14,71.29v18l6-4,6,4V84l-4-2.69-6,4V67.41h-2Z"/></g><path class="cls-10" d="M30.24,111a8,8,0,0,1,8,7.95V75.26a8,8,0,0,0-7.95-8H8.38V111Z"/><g class="cls-7"><path class="cls-8" d="M38.19,119V75.26a8,8,0,0,0-6.95-7.85v43.73A8,8,0,0,1,38.19,119Z"/></g><g class="cls-12"><path class="cls-13" d="M38.19,75.26V119a7.94,7.94,0,0,1,6-7.65V67.61A7.94,7.94,0,0,0,38.19,75.26Z"/></g><path class="cls-14" d="M38.19,120.08a1,1,0,0,1-1-1,7,7,0,0,0-7-7H8.38a1,1,0,0,1-1-1V67.41a1,1,0,0,1,1-1H30.24a9,9,0,0,1,9,8.94v38.11a8.92,8.92,0,0,1,7-3.33H67V68.4h-7a1,1,0,1,1,0-2h8a1,1,0,0,1,1,1v43.73a1,1,0,0,1-1,1H46.14a7,7,0,0,0-7,7A1,1,0,0,1,38.19,120.08ZM9.37,110.14H30.24a8.93,8.93,0,0,1,7,3.33V75.36a7,7,0,0,0-7-7H9.37Z"/><path class="cls-14" d="M60.06,86.29a1,1,0,0,1-.56-.16l-5.41-3.61-5.41,3.61a1,1,0,0,1-1.54-.83V68.4h-1a7,7,0,0,0-7,7,1,1,0,0,1-2,0,9,9,0,0,1,8.94-8.94h1v-3a1,1,0,0,1,1-1H60.06a1,1,0,0,1,1,1V85.3a1,1,0,0,1-.53.87A.93.93,0,0,1,60.06,86.29Zm-6-6a1,1,0,0,1,.55.17l4.42,2.94v-19H49.12v19l4.42-2.94A1,1,0,0,1,54.09,80.33Z"/><path class="cls-15" d="M101.72,68.68c-5.12-1.39-12.4-2.54-13.51,1.56s2.31,4.34,2.31,4.34L87.37,86.15a2.11,2.11,0,0,0,1.48,2.59l13.8,3.75A2.1,2.1,0,0,0,105.24,91L108.4,79.4a3.47,3.47,0,0,0,4.18-2.53C113.47,73.58,110.78,71.15,101.72,68.68Z"/><path class="cls-16" d="M90.52,74.58l-5.85,8.66,2.81,2.51"/><path class="cls-17" d="M88.44,88.63a2.53,2.53,0,0,0,4.47,2.17,2.1,2.1,0,0,0,3.91.54A2.52,2.52,0,0,0,100,93a2.45,2.45,0,0,0,1.31-.92"/><path class="cls-18" d="M108,80.94a4.21,4.21,0,0,1-2.17,8"/><circle class="cls-19" cx="95" cy="72.53" r="0.42"/><circle class="cls-19" cx="96.92" cy="78.28" r="0.42"/><circle class="cls-19" cx="104.6" cy="77.32" r="0.84"/><circle class="cls-19" cx="101.8" cy="84.41" r="0.84"/><circle class="cls-19" cx="94.12" cy="85.37" r="0.42"/><path class="cls-9" d="M102.46,92.88,88.65,89.12A2.52,2.52,0,0,1,86.88,86l3-11.13a3.23,3.23,0,0,1-1.86-1.21,4.12,4.12,0,0,1-.33-3.57c.66-2.41,3.62-4.69,14-1.85,8.94,2.43,12.17,4.95,11.15,8.7a3.78,3.78,0,0,1-4.28,2.9L105.56,91.1A2.53,2.53,0,0,1,102.46,92.88ZM90.54,74.15a.45.45,0,0,1,.24.16.42.42,0,0,1,.06.36L87.69,86.24a1.7,1.7,0,0,0,1.18,2.07l13.81,3.76a1.69,1.69,0,0,0,2.07-1.19l3.16-11.61a.42.42,0,0,1,.5-.3,3,3,0,0,0,3.68-2.23c.63-2.32-.21-4.86-10.56-7.67-4.4-1.2-11.94-2.63-13,1.26a3.35,3.35,0,0,0,.2,2.85,2.59,2.59,0,0,0,1.74,1Z"/><path class="cls-9" d="M90,92.13h0a2.93,2.93,0,0,1-1.77-1.39A3,3,0,0,1,88,88.49a.43.43,0,0,1,.52-.29h0a.41.41,0,0,1,.29.52,2.08,2.08,0,0,0,.2,1.6,2.05,2.05,0,0,0,1.26,1,2.09,2.09,0,0,0,2.27-.78.4.4,0,0,1,.42-.16.43.43,0,0,1,.33.32A1.67,1.67,0,0,0,94,91.75a1.65,1.65,0,0,0,1.26.22,1.74,1.74,0,0,0,1.13-.85.41.41,0,0,1,.41-.22.42.42,0,0,1,.36.31,2.1,2.1,0,0,0,3.75.65.42.42,0,0,1,.69.49A3,3,0,0,1,100,93.49a3,3,0,0,1-3.32-1.34,2.55,2.55,0,0,1-1.2.64,2.48,2.48,0,0,1-1.91-.34,2.37,2.37,0,0,1-.85-.9A3,3,0,0,1,90,92.13Zm-2.73-6a.46.46,0,0,1-.17-.09l-2.81-2.51a.42.42,0,0,1-.07-.55l5.85-8.66a.42.42,0,1,1,.69.47l-5.64,8.36,2.54,2.26a.42.42,0,0,1-.39.72Zm18.33,3.16a.43.43,0,0,1-.31-.44.43.43,0,0,1,.45-.39,3.76,3.76,0,0,0,3.63-2.08,3.79,3.79,0,0,0-1.68-5.08.42.42,0,1,1,.38-.75,4.63,4.63,0,0,1-2.39,8.75Z"/><circle class="cls-9" cx="94.92" cy="72.5" r="0.84"/><circle class="cls-9" cx="96.84" cy="78.26" r="0.84"/><path class="cls-9" d="M104.19,78.52a1.26,1.26,0,1,1,1.55-.89A1.27,1.27,0,0,1,104.19,78.52Zm.44-1.63a.41.41,0,0,0-.51.3.41.41,0,0,0,.29.51.42.42,0,1,0,.22-.81Z"/><path class="cls-9" d="M101.39,85.61a1.26,1.26,0,1,1,1.55-.89A1.27,1.27,0,0,1,101.39,85.61Zm.44-1.63a.42.42,0,1,0,.3.52A.42.42,0,0,0,101.83,84Z"/><circle class="cls-9" cx="94.04" cy="85.35" r="0.84"/><path class="cls-20" d="M44.66,26.39l-2,2.22a9,9,0,1,1-9.58-1.48l-1.2-2.74a12,12,0,1,0,12.75,2Z"/><g class="cls-5"><path class="cls-6" d="M41.57,45.23a12,12,0,0,1-16.76-11,12,12,0,1,0,23.85,2.39,11.66,11.66,0,0,0,.06-1.18A12,12,0,0,1,41.57,45.23Z"/></g><path class="cls-21" d="M28.48,39A9,9,0,1,0,42.65,28.63l-5.94,6.74-3.6-8.24A9,9,0,0,0,28.48,39Z"/><circle class="cls-22" cx="32.91" cy="35.4" r="1"/><circle class="cls-22" cx="37.14" cy="40.09" r="0.5"/><circle class="cls-22" cx="40.91" cy="36.26" r="1.5"/><path class="cls-21" d="M35.08,19.19l-.36.16,2.73,10.24L45,21A9,9,0,0,0,35.08,19.19Z"/><path class="cls-20" d="M34.08,16.9l.64,2.45.36-.16A9,9,0,0,1,45,21l1.81-2.1A12,12,0,0,0,34.08,16.9Z"/><path class="cls-9" d="M41.74,46.9h0a12.53,12.53,0,0,1-10-23,.5.5,0,0,1,.68.25l1.2,2.74a.5.5,0,0,1-.26.66,8.63,8.63,0,0,0-2.93,2.15,8.5,8.5,0,0,0,.75,12A8.49,8.49,0,1,0,42.36,29a.5.5,0,0,1,0-.71l2-2.22a.49.49,0,0,1,.7,0A12.54,12.54,0,0,1,41.74,46.9ZM31.66,25.06A11.53,11.53,0,0,0,41.32,46h0a11.54,11.54,0,0,0,5.95-15.17A11.75,11.75,0,0,0,44.7,27.1l-1.31,1.48a9.49,9.49,0,1,1-10.93-1.69Z"/><path class="cls-9" d="M40.52,44.08h0a9.5,9.5,0,0,1-7.59-17.41.5.5,0,0,1,.66.25l3.28,7.52,5.42-6.15a.5.5,0,0,1,.71,0,9.62,9.62,0,0,1,2.44,3.34A9.51,9.51,0,0,1,40.52,44.08ZM32.86,27.81a8.51,8.51,0,0,0-3.93,11h0a8.5,8.5,0,0,0,11.17,4.4h0A8.49,8.49,0,0,0,44.5,32a8.36,8.36,0,0,0-1.82-2.65L37.09,35.7a.5.5,0,0,1-.46.16.48.48,0,0,1-.38-.29ZM28.48,39Z"/><path class="cls-9" d="M33.51,36.77a1.5,1.5,0,1,1,.77-2A1.5,1.5,0,0,1,33.51,36.77Zm-.8-1.83a.5.5,0,1,0,.4.91.5.5,0,1,0-.4-.91Z"/><circle class="cls-9" cx="37.14" cy="40.09" r="1"/><path class="cls-9" d="M41.71,38.09a2,2,0,1,1,1-2.63A2,2,0,0,1,41.71,38.09Zm-1.2-2.75a1,1,0,0,0,.8,1.83,1,1,0,1,0-.8-1.83Z"/><path class="cls-9" d="M37.65,30.05a.54.54,0,0,1-.31,0,.5.5,0,0,1-.37-.36L34.24,19.48a.49.49,0,0,1,.28-.59l.36-.16h0a9.45,9.45,0,0,1,10.41,1.89.51.51,0,0,1,0,.69l-7.51,8.62A.46.46,0,0,1,37.65,30.05ZM35.31,19.63l2.38,8.93L44.27,21A8.45,8.45,0,0,0,35.31,19.63Z"/><path class="cls-9" d="M45.16,21.43a.47.47,0,0,1-.17,0,.53.53,0,0,1-.37-.14,8.45,8.45,0,0,0-9.32-1.69h0l-.36.16a.51.51,0,0,1-.42,0,.55.55,0,0,1-.27-.33L33.6,17a.51.51,0,0,1,.28-.58h0A12.53,12.53,0,0,1,47.1,18.5a.49.49,0,0,1,0,.7l-1.81,2.1A.59.59,0,0,1,45.16,21.43ZM35.05,18.66a9.43,9.43,0,0,1,9.87,1.59l1.14-1.32a11.55,11.55,0,0,0-11.38-1.74Z"/><path class="cls-20" d="M72.48,39.67c0-2.7,3.2-8.42,11.78-8.42s11.79,3.83,11.79,8.42-4.21,4.21-9.26,4.21H76.69A4.29,4.29,0,0,1,72.48,39.67Z"/><g class="cls-7"><path class="cls-6" d="M90.58,42.19H80.48A4.28,4.28,0,0,1,76.27,38a8.25,8.25,0,0,1,4-6.22c-5.55,1.43-7.74,5.68-7.74,7.91a4.29,4.29,0,0,0,4.21,4.21h10.1c3.87,0,7.24.12,8.63-1.81A43.72,43.72,0,0,1,90.58,42.19Z"/></g><path class="cls-23" d="M96.89,46.4a.83.83,0,0,1-.84.84H72.48a.84.84,0,0,1,0-1.68H96.05A.84.84,0,0,1,96.89,46.4Z"/><path class="cls-9" d="M96.05,47.67H72.48a1.27,1.27,0,0,1,0-2.53H96.05a1.27,1.27,0,0,1,0,2.53ZM72.48,46a.42.42,0,0,0-.42.42.42.42,0,0,0,.42.42H96.05a.42.42,0,0,0,.42-.42.42.42,0,0,0-.42-.42Zm16.4-1.67H76.69a4.69,4.69,0,0,1-4.63-4.63c0-2.3,2-6.07,6.56-7.85a.35.35,0,0,1,.14-.06,14.91,14.91,0,0,1,4.52-.9.43.43,0,0,1,.25,0h.73a22.82,22.82,0,0,1,3.25.23.42.42,0,0,1,.36.05h0c3.92.64,8.6,2.65,8.6,8.56a4.22,4.22,0,0,1-1.11,3.17C94,44.18,91.66,44.31,88.88,44.31ZM78.77,32.64c-4.37,1.76-5.87,5.43-5.87,7a3.9,3.9,0,0,0,3.79,3.79H87.87c3,0,5.64,0,6.9-1.22a3.43,3.43,0,0,0,.86-2.57c0-2.43-1-6.2-6.65-7.52a7.89,7.89,0,0,1,1.6,4.11.42.42,0,0,1-.38.46.42.42,0,0,1-.46-.37,6.3,6.3,0,0,0-2.24-4.47,24.43,24.43,0,0,0-2.87-.21,8.56,8.56,0,0,1,1.74,4.59.42.42,0,0,1-.38.46.42.42,0,0,1-.46-.37c-.23-2.18-1.11-4.06-2.17-4.66a14.75,14.75,0,0,0-3.64.62,6.3,6.3,0,0,1,2.44,4.83.42.42,0,0,1-.84,0A5.65,5.65,0,0,0,78.77,32.64Z"/></g></svg>