<svg xmlns="http://www.w3.org/2000/svg" viewBox="0 0 180.35 180.35"><defs><style>.cls-1{fill:#fdae5b;}.cls-2{fill:#121212;}</style></defs><title>logo</title><g id="Layer_2" data-name="Layer 2"><circle class="cls-1" cx="90.17" cy="90.17" r="90.17"/><path class="cls-2" d="M109.38,40.22h31c.08,1.7.66,43.53-.47,60.6C138.28,125.38,117.76,144.49,93,146A50.44,50.44,0,0,1,40.88,106.6c-3.6-16.68,1.48-34.95,12.82-45.5L76.2,81.87c-6.69,10-7,18.29-1.09,25.82a19.39,19.39,0,0,0,20.15,6.48c7.57-2.21,13.47-8.78,13.75-16.42.42-11.71.29-23.45.37-35.18C109.41,57,109.38,46.5,109.38,40.22Z"/></g></svg>