<svg width="77" height="77" viewBox="0 0 77 77" fill="none" xmlns="http://www.w3.org/2000/svg">
<path d="M77 38.5C77 59.7677 59.7615 77 38.5 77C17.2385 77 0 59.7677 0 38.5C0 17.2447 17.2385 0 38.5 0C59.7615 0 77 17.2447 77 38.5ZM38.5 46.2621C34.5561 46.2621 31.3589 49.4593 31.3589 53.4032C31.3589 57.3471 34.5561 60.5444 38.5 60.5444C42.4439 60.5444 45.6411 57.3471 45.6411 53.4032C45.6411 49.4593 42.4439 46.2621 38.5 46.2621ZM31.7201 20.5935L32.8717 41.7064C32.9256 42.6943 33.7425 43.4677 34.7318 43.4677H42.2682C43.2575 43.4677 44.0744 42.6943 44.1283 41.7064L45.2799 20.5935C45.3381 19.5263 44.4885 18.629 43.4198 18.629H33.5801C32.5114 18.629 31.6619 19.5263 31.7201 20.5935V20.5935Z" fill="#EB5757"/>
</svg>
