<svg width="77" height="77" viewBox="0 0 77 77" fill="none" xmlns="http://www.w3.org/2000/svg">
<path d="M77 38.5C77 59.763 59.763 77 38.5 77C17.237 77 0 59.763 0 38.5C0 17.237 17.237 0 38.5 0C59.763 0 77 17.237 77 38.5ZM34.0467 58.8854L62.6112 30.3209C63.5812 29.351 63.5812 27.7782 62.6112 26.8083L59.0986 23.2956C58.1286 22.3255 56.5559 22.3255 55.5858 23.2956L32.2903 46.5909L21.4142 35.7148C20.4443 34.7449 18.8715 34.7449 17.9014 35.7148L14.3888 39.2275C13.4188 40.1974 13.4188 41.7702 14.3888 42.7401L30.5339 58.8853C31.504 59.8554 33.0766 59.8554 34.0467 58.8854Z" fill="#3DC795"/>
</svg>
