<svg xmlns="http://www.w3.org/2000/svg" viewBox="0 0 42 42"><defs><style>.cls-1{fill:#2f446a;}.cls-2{fill:#ed1c24;}.cls-3{fill:#fff;}.cls-4{fill:#0071bc;}</style></defs><title>Asset 1</title><g id="Layer_2" data-name="Layer 2"><g id="text"><path class="cls-1" d="M42,21a21.15,21.15,0,0,1-.66,5.25A21,21,0,0,1,4.6,34.12,20.85,20.85,0,0,1,.66,26.25a21.21,21.21,0,0,1,0-10.5A21,21,0,0,1,37.4,7.88a20.85,20.85,0,0,1,3.94,7.87A21.15,21.15,0,0,1,42,21Z"/><path class="cls-2" d="M37.4,7.88H4.6a21,21,0,0,1,32.8,0Z"/><path class="cls-3" d="M41.34,15.75H.66A20.85,20.85,0,0,1,4.6,7.88H37.4A20.85,20.85,0,0,1,41.34,15.75Z"/><path class="cls-4" d="M42,21a21.15,21.15,0,0,1-.66,5.25H.66a21.21,21.21,0,0,1,0-10.5H41.34A21.15,21.15,0,0,1,42,21Z"/><path class="cls-3" d="M41.34,26.25a20.85,20.85,0,0,1-3.94,7.87H4.6A20.85,20.85,0,0,1,.66,26.25Z"/><path class="cls-2" d="M37.4,34.12a21,21,0,0,1-32.8,0Z"/></g></g></svg>