<svg xmlns="http://www.w3.org/2000/svg" viewBox="0 0 25 20"><defs><style>.cls-1{fill:#c4c4c4;}</style></defs><title>Asset 18</title><g id="Layer_2" data-name="Layer 2"><g id="Layer_1-2" data-name="Layer 1"><path class="cls-1" d="M24.38,13.75h-.63V9.53A1.88,1.88,0,0,0,23.2,8.2L19.3,4.3A1.88,1.88,0,0,0,18,3.75H16.25V1.88A1.88,1.88,0,0,0,14.38,0H1.88A1.88,1.88,0,0,0,0,1.88v12.5a1.88,1.88,0,0,0,1.88,1.87H2.5a3.75,3.75,0,0,0,7.5,0h5a3.75,3.75,0,0,0,7.5,0h1.88a.63.63,0,0,0,.62-.63V14.38A.63.63,0,0,0,24.38,13.75ZM6.25,18.12a1.87,1.87,0,1,1,1.87-1.87A1.86,1.86,0,0,1,6.25,18.12Zm12.5,0a1.87,1.87,0,1,1,1.87-1.87A1.86,1.86,0,0,1,18.75,18.12ZM21.88,10H16.25V5.62H18l3.91,3.91Z"/></g></g></svg>